<?xml version="1.0" encoding="utf-8" standalone="no"?>
<!DOCTYPE svg PUBLIC "-//W3C//DTD SVG 1.1//EN"
  "http://www.w3.org/Graphics/SVG/1.1/DTD/svg11.dtd">
<svg xmlns:xlink="http://www.w3.org/1999/xlink" width="720pt" height="360pt" viewBox="0 0 720 360" xmlns="http://www.w3.org/2000/svg" version="1.1">
 <metadata>
  <rdf:RDF xmlns:dc="http://purl.org/dc/elements/1.1/" xmlns:cc="http://creativecommons.org/ns#" xmlns:rdf="http://www.w3.org/1999/02/22-rdf-syntax-ns#">
   <cc:Work>
    <dc:type rdf:resource="http://purl.org/dc/dcmitype/StillImage"/>
    <dc:date>2025-06-28T10:59:16.699362</dc:date>
    <dc:format>image/svg+xml</dc:format>
    <dc:creator>
     <cc:Agent>
      <dc:title>Matplotlib v3.7.5, https://matplotlib.org/</dc:title>
     </cc:Agent>
    </dc:creator>
   </cc:Work>
  </rdf:RDF>
 </metadata>
 <defs>
  <style type="text/css">*{stroke-linejoin: round; stroke-linecap: butt}</style>
 </defs>
 <g id="figure_1">
  <g id="patch_1">
   <path d="M 0 360 
L 720 360 
L 720 0 
L 0 0 
z
" style="fill: #ffffff"/>
  </g>
  <g id="axes_1">
   <g id="patch_2">
    <path d="M 62.3 318.04 
L 709.2 318.04 
L 709.2 26.88 
L 62.3 26.88 
z
" style="fill: #ffffff"/>
   </g>
   <g id="matplotlib.axis_1">
    <g id="xtick_1">
     <g id="line2d_1">
      <path d="M 91.704545 318.04 
L 91.704545 26.88 
" clip-path="url(#p70d68008a4)" style="fill: none; stroke: #b0b0b0; stroke-width: 0.8; stroke-linecap: square"/>
     </g>
     <g id="line2d_2">
      <defs>
       <path id="m632544184a" d="M 0 0 
L 0 3.5 
" style="stroke: #000000; stroke-width: 0.8"/>
      </defs>
      <g>
       <use xlink:href="#m632544184a" x="91.704545" y="318.04" style="stroke: #000000; stroke-width: 0.8"/>
      </g>
     </g>
     <g id="text_1">
      <!-- 0 -->
      <g transform="translate(88.523295 332.638438) scale(0.1 -0.1)">
       <defs>
        <path id="DejaVuSans-30" d="M 2034 4250 
Q 1547 4250 1301 3770 
Q 1056 3291 1056 2328 
Q 1056 1369 1301 889 
Q 1547 409 2034 409 
Q 2525 409 2770 889 
Q 3016 1369 3016 2328 
Q 3016 3291 2770 3770 
Q 2525 4250 2034 4250 
z
M 2034 4750 
Q 2819 4750 3233 4129 
Q 3647 3509 3647 2328 
Q 3647 1150 3233 529 
Q 2819 -91 2034 -91 
Q 1250 -91 836 529 
Q 422 1150 422 2328 
Q 422 3509 836 4129 
Q 1250 4750 2034 4750 
z
" transform="scale(0.015625)"/>
       </defs>
       <use xlink:href="#DejaVuSans-30"/>
      </g>
     </g>
    </g>
    <g id="xtick_2">
     <g id="line2d_3">
      <path d="M 169.160874 318.04 
L 169.160874 26.88 
" clip-path="url(#p70d68008a4)" style="fill: none; stroke: #b0b0b0; stroke-width: 0.8; stroke-linecap: square"/>
     </g>
     <g id="line2d_4">
      <g>
       <use xlink:href="#m632544184a" x="169.160874" y="318.04" style="stroke: #000000; stroke-width: 0.8"/>
      </g>
     </g>
     <g id="text_2">
      <!-- 50 -->
      <g transform="translate(162.798374 332.638438) scale(0.1 -0.1)">
       <defs>
        <path id="DejaVuSans-35" d="M 691 4666 
L 3169 4666 
L 3169 4134 
L 1269 4134 
L 1269 2991 
Q 1406 3038 1543 3061 
Q 1681 3084 1819 3084 
Q 2600 3084 3056 2656 
Q 3513 2228 3513 1497 
Q 3513 744 3044 326 
Q 2575 -91 1722 -91 
Q 1428 -91 1123 -41 
Q 819 9 494 109 
L 494 744 
Q 775 591 1075 516 
Q 1375 441 1709 441 
Q 2250 441 2565 725 
Q 2881 1009 2881 1497 
Q 2881 1984 2565 2268 
Q 2250 2553 1709 2553 
Q 1456 2553 1204 2497 
Q 953 2441 691 2322 
L 691 4666 
z
" transform="scale(0.015625)"/>
       </defs>
       <use xlink:href="#DejaVuSans-35"/>
       <use xlink:href="#DejaVuSans-30" x="63.623047"/>
      </g>
     </g>
    </g>
    <g id="xtick_3">
     <g id="line2d_5">
      <path d="M 246.617202 318.04 
L 246.617202 26.88 
" clip-path="url(#p70d68008a4)" style="fill: none; stroke: #b0b0b0; stroke-width: 0.8; stroke-linecap: square"/>
     </g>
     <g id="line2d_6">
      <g>
       <use xlink:href="#m632544184a" x="246.617202" y="318.04" style="stroke: #000000; stroke-width: 0.8"/>
      </g>
     </g>
     <g id="text_3">
      <!-- 100 -->
      <g transform="translate(237.073452 332.638438) scale(0.1 -0.1)">
       <defs>
        <path id="DejaVuSans-31" d="M 794 531 
L 1825 531 
L 1825 4091 
L 703 3866 
L 703 4441 
L 1819 4666 
L 2450 4666 
L 2450 531 
L 3481 531 
L 3481 0 
L 794 0 
L 794 531 
z
" transform="scale(0.015625)"/>
       </defs>
       <use xlink:href="#DejaVuSans-31"/>
       <use xlink:href="#DejaVuSans-30" x="63.623047"/>
       <use xlink:href="#DejaVuSans-30" x="127.246094"/>
      </g>
     </g>
    </g>
    <g id="xtick_4">
     <g id="line2d_7">
      <path d="M 324.07353 318.04 
L 324.07353 26.88 
" clip-path="url(#p70d68008a4)" style="fill: none; stroke: #b0b0b0; stroke-width: 0.8; stroke-linecap: square"/>
     </g>
     <g id="line2d_8">
      <g>
       <use xlink:href="#m632544184a" x="324.07353" y="318.04" style="stroke: #000000; stroke-width: 0.8"/>
      </g>
     </g>
     <g id="text_4">
      <!-- 150 -->
      <g transform="translate(314.52978 332.638438) scale(0.1 -0.1)">
       <use xlink:href="#DejaVuSans-31"/>
       <use xlink:href="#DejaVuSans-35" x="63.623047"/>
       <use xlink:href="#DejaVuSans-30" x="127.246094"/>
      </g>
     </g>
    </g>
    <g id="xtick_5">
     <g id="line2d_9">
      <path d="M 401.529858 318.04 
L 401.529858 26.88 
" clip-path="url(#p70d68008a4)" style="fill: none; stroke: #b0b0b0; stroke-width: 0.8; stroke-linecap: square"/>
     </g>
     <g id="line2d_10">
      <g>
       <use xlink:href="#m632544184a" x="401.529858" y="318.04" style="stroke: #000000; stroke-width: 0.8"/>
      </g>
     </g>
     <g id="text_5">
      <!-- 200 -->
      <g transform="translate(391.986108 332.638438) scale(0.1 -0.1)">
       <defs>
        <path id="DejaVuSans-32" d="M 1228 531 
L 3431 531 
L 3431 0 
L 469 0 
L 469 531 
Q 828 903 1448 1529 
Q 2069 2156 2228 2338 
Q 2531 2678 2651 2914 
Q 2772 3150 2772 3378 
Q 2772 3750 2511 3984 
Q 2250 4219 1831 4219 
Q 1534 4219 1204 4116 
Q 875 4013 500 3803 
L 500 4441 
Q 881 4594 1212 4672 
Q 1544 4750 1819 4750 
Q 2544 4750 2975 4387 
Q 3406 4025 3406 3419 
Q 3406 3131 3298 2873 
Q 3191 2616 2906 2266 
Q 2828 2175 2409 1742 
Q 1991 1309 1228 531 
z
" transform="scale(0.015625)"/>
       </defs>
       <use xlink:href="#DejaVuSans-32"/>
       <use xlink:href="#DejaVuSans-30" x="63.623047"/>
       <use xlink:href="#DejaVuSans-30" x="127.246094"/>
      </g>
     </g>
    </g>
    <g id="xtick_6">
     <g id="line2d_11">
      <path d="M 478.986186 318.04 
L 478.986186 26.88 
" clip-path="url(#p70d68008a4)" style="fill: none; stroke: #b0b0b0; stroke-width: 0.8; stroke-linecap: square"/>
     </g>
     <g id="line2d_12">
      <g>
       <use xlink:href="#m632544184a" x="478.986186" y="318.04" style="stroke: #000000; stroke-width: 0.8"/>
      </g>
     </g>
     <g id="text_6">
      <!-- 250 -->
      <g transform="translate(469.442436 332.638438) scale(0.1 -0.1)">
       <use xlink:href="#DejaVuSans-32"/>
       <use xlink:href="#DejaVuSans-35" x="63.623047"/>
       <use xlink:href="#DejaVuSans-30" x="127.246094"/>
      </g>
     </g>
    </g>
    <g id="xtick_7">
     <g id="line2d_13">
      <path d="M 556.442514 318.04 
L 556.442514 26.88 
" clip-path="url(#p70d68008a4)" style="fill: none; stroke: #b0b0b0; stroke-width: 0.8; stroke-linecap: square"/>
     </g>
     <g id="line2d_14">
      <g>
       <use xlink:href="#m632544184a" x="556.442514" y="318.04" style="stroke: #000000; stroke-width: 0.8"/>
      </g>
     </g>
     <g id="text_7">
      <!-- 300 -->
      <g transform="translate(546.898764 332.638438) scale(0.1 -0.1)">
       <defs>
        <path id="DejaVuSans-33" d="M 2597 2516 
Q 3050 2419 3304 2112 
Q 3559 1806 3559 1356 
Q 3559 666 3084 287 
Q 2609 -91 1734 -91 
Q 1441 -91 1130 -33 
Q 819 25 488 141 
L 488 750 
Q 750 597 1062 519 
Q 1375 441 1716 441 
Q 2309 441 2620 675 
Q 2931 909 2931 1356 
Q 2931 1769 2642 2001 
Q 2353 2234 1838 2234 
L 1294 2234 
L 1294 2753 
L 1863 2753 
Q 2328 2753 2575 2939 
Q 2822 3125 2822 3475 
Q 2822 3834 2567 4026 
Q 2313 4219 1838 4219 
Q 1578 4219 1281 4162 
Q 984 4106 628 3988 
L 628 4550 
Q 988 4650 1302 4700 
Q 1616 4750 1894 4750 
Q 2613 4750 3031 4423 
Q 3450 4097 3450 3541 
Q 3450 3153 3228 2886 
Q 3006 2619 2597 2516 
z
" transform="scale(0.015625)"/>
       </defs>
       <use xlink:href="#DejaVuSans-33"/>
       <use xlink:href="#DejaVuSans-30" x="63.623047"/>
       <use xlink:href="#DejaVuSans-30" x="127.246094"/>
      </g>
     </g>
    </g>
    <g id="xtick_8">
     <g id="line2d_15">
      <path d="M 633.898842 318.04 
L 633.898842 26.88 
" clip-path="url(#p70d68008a4)" style="fill: none; stroke: #b0b0b0; stroke-width: 0.8; stroke-linecap: square"/>
     </g>
     <g id="line2d_16">
      <g>
       <use xlink:href="#m632544184a" x="633.898842" y="318.04" style="stroke: #000000; stroke-width: 0.8"/>
      </g>
     </g>
     <g id="text_8">
      <!-- 350 -->
      <g transform="translate(624.355092 332.638438) scale(0.1 -0.1)">
       <use xlink:href="#DejaVuSans-33"/>
       <use xlink:href="#DejaVuSans-35" x="63.623047"/>
       <use xlink:href="#DejaVuSans-30" x="127.246094"/>
      </g>
     </g>
    </g>
    <g id="text_9">
     <!-- Time (seconds) -->
     <g transform="translate(347.588281 346.316563) scale(0.1 -0.1)">
      <defs>
       <path id="DejaVuSans-54" d="M -19 4666 
L 3928 4666 
L 3928 4134 
L 2272 4134 
L 2272 0 
L 1638 0 
L 1638 4134 
L -19 4134 
L -19 4666 
z
" transform="scale(0.015625)"/>
       <path id="DejaVuSans-69" d="M 603 3500 
L 1178 3500 
L 1178 0 
L 603 0 
L 603 3500 
z
M 603 4863 
L 1178 4863 
L 1178 4134 
L 603 4134 
L 603 4863 
z
" transform="scale(0.015625)"/>
       <path id="DejaVuSans-6d" d="M 3328 2828 
Q 3544 3216 3844 3400 
Q 4144 3584 4550 3584 
Q 5097 3584 5394 3201 
Q 5691 2819 5691 2113 
L 5691 0 
L 5113 0 
L 5113 2094 
Q 5113 2597 4934 2840 
Q 4756 3084 4391 3084 
Q 3944 3084 3684 2787 
Q 3425 2491 3425 1978 
L 3425 0 
L 2847 0 
L 2847 2094 
Q 2847 2600 2669 2842 
Q 2491 3084 2119 3084 
Q 1678 3084 1418 2786 
Q 1159 2488 1159 1978 
L 1159 0 
L 581 0 
L 581 3500 
L 1159 3500 
L 1159 2956 
Q 1356 3278 1631 3431 
Q 1906 3584 2284 3584 
Q 2666 3584 2933 3390 
Q 3200 3197 3328 2828 
z
" transform="scale(0.015625)"/>
       <path id="DejaVuSans-65" d="M 3597 1894 
L 3597 1613 
L 953 1613 
Q 991 1019 1311 708 
Q 1631 397 2203 397 
Q 2534 397 2845 478 
Q 3156 559 3463 722 
L 3463 178 
Q 3153 47 2828 -22 
Q 2503 -91 2169 -91 
Q 1331 -91 842 396 
Q 353 884 353 1716 
Q 353 2575 817 3079 
Q 1281 3584 2069 3584 
Q 2775 3584 3186 3129 
Q 3597 2675 3597 1894 
z
M 3022 2063 
Q 3016 2534 2758 2815 
Q 2500 3097 2075 3097 
Q 1594 3097 1305 2825 
Q 1016 2553 972 2059 
L 3022 2063 
z
" transform="scale(0.015625)"/>
       <path id="DejaVuSans-20" transform="scale(0.015625)"/>
       <path id="DejaVuSans-28" d="M 1984 4856 
Q 1566 4138 1362 3434 
Q 1159 2731 1159 2009 
Q 1159 1288 1364 580 
Q 1569 -128 1984 -844 
L 1484 -844 
Q 1016 -109 783 600 
Q 550 1309 550 2009 
Q 550 2706 781 3412 
Q 1013 4119 1484 4856 
L 1984 4856 
z
" transform="scale(0.015625)"/>
       <path id="DejaVuSans-73" d="M 2834 3397 
L 2834 2853 
Q 2591 2978 2328 3040 
Q 2066 3103 1784 3103 
Q 1356 3103 1142 2972 
Q 928 2841 928 2578 
Q 928 2378 1081 2264 
Q 1234 2150 1697 2047 
L 1894 2003 
Q 2506 1872 2764 1633 
Q 3022 1394 3022 966 
Q 3022 478 2636 193 
Q 2250 -91 1575 -91 
Q 1294 -91 989 -36 
Q 684 19 347 128 
L 347 722 
Q 666 556 975 473 
Q 1284 391 1588 391 
Q 1994 391 2212 530 
Q 2431 669 2431 922 
Q 2431 1156 2273 1281 
Q 2116 1406 1581 1522 
L 1381 1569 
Q 847 1681 609 1914 
Q 372 2147 372 2553 
Q 372 3047 722 3315 
Q 1072 3584 1716 3584 
Q 2034 3584 2315 3537 
Q 2597 3491 2834 3397 
z
" transform="scale(0.015625)"/>
       <path id="DejaVuSans-63" d="M 3122 3366 
L 3122 2828 
Q 2878 2963 2633 3030 
Q 2388 3097 2138 3097 
Q 1578 3097 1268 2742 
Q 959 2388 959 1747 
Q 959 1106 1268 751 
Q 1578 397 2138 397 
Q 2388 397 2633 464 
Q 2878 531 3122 666 
L 3122 134 
Q 2881 22 2623 -34 
Q 2366 -91 2075 -91 
Q 1284 -91 818 406 
Q 353 903 353 1747 
Q 353 2603 823 3093 
Q 1294 3584 2113 3584 
Q 2378 3584 2631 3529 
Q 2884 3475 3122 3366 
z
" transform="scale(0.015625)"/>
       <path id="DejaVuSans-6f" d="M 1959 3097 
Q 1497 3097 1228 2736 
Q 959 2375 959 1747 
Q 959 1119 1226 758 
Q 1494 397 1959 397 
Q 2419 397 2687 759 
Q 2956 1122 2956 1747 
Q 2956 2369 2687 2733 
Q 2419 3097 1959 3097 
z
M 1959 3584 
Q 2709 3584 3137 3096 
Q 3566 2609 3566 1747 
Q 3566 888 3137 398 
Q 2709 -91 1959 -91 
Q 1206 -91 779 398 
Q 353 888 353 1747 
Q 353 2609 779 3096 
Q 1206 3584 1959 3584 
z
" transform="scale(0.015625)"/>
       <path id="DejaVuSans-6e" d="M 3513 2113 
L 3513 0 
L 2938 0 
L 2938 2094 
Q 2938 2591 2744 2837 
Q 2550 3084 2163 3084 
Q 1697 3084 1428 2787 
Q 1159 2491 1159 1978 
L 1159 0 
L 581 0 
L 581 3500 
L 1159 3500 
L 1159 2956 
Q 1366 3272 1645 3428 
Q 1925 3584 2291 3584 
Q 2894 3584 3203 3211 
Q 3513 2838 3513 2113 
z
" transform="scale(0.015625)"/>
       <path id="DejaVuSans-64" d="M 2906 2969 
L 2906 4863 
L 3481 4863 
L 3481 0 
L 2906 0 
L 2906 525 
Q 2725 213 2448 61 
Q 2172 -91 1784 -91 
Q 1150 -91 751 415 
Q 353 922 353 1747 
Q 353 2572 751 3078 
Q 1150 3584 1784 3584 
Q 2172 3584 2448 3432 
Q 2725 3281 2906 2969 
z
M 947 1747 
Q 947 1113 1208 752 
Q 1469 391 1925 391 
Q 2381 391 2643 752 
Q 2906 1113 2906 1747 
Q 2906 2381 2643 2742 
Q 2381 3103 1925 3103 
Q 1469 3103 1208 2742 
Q 947 2381 947 1747 
z
" transform="scale(0.015625)"/>
       <path id="DejaVuSans-29" d="M 513 4856 
L 1013 4856 
Q 1481 4119 1714 3412 
Q 1947 2706 1947 2009 
Q 1947 1309 1714 600 
Q 1481 -109 1013 -844 
L 513 -844 
Q 928 -128 1133 580 
Q 1338 1288 1338 2009 
Q 1338 2731 1133 3434 
Q 928 4138 513 4856 
z
" transform="scale(0.015625)"/>
      </defs>
      <use xlink:href="#DejaVuSans-54"/>
      <use xlink:href="#DejaVuSans-69" x="57.958984"/>
      <use xlink:href="#DejaVuSans-6d" x="85.742188"/>
      <use xlink:href="#DejaVuSans-65" x="183.154297"/>
      <use xlink:href="#DejaVuSans-20" x="244.677734"/>
      <use xlink:href="#DejaVuSans-28" x="276.464844"/>
      <use xlink:href="#DejaVuSans-73" x="315.478516"/>
      <use xlink:href="#DejaVuSans-65" x="367.578125"/>
      <use xlink:href="#DejaVuSans-63" x="429.101562"/>
      <use xlink:href="#DejaVuSans-6f" x="484.082031"/>
      <use xlink:href="#DejaVuSans-6e" x="545.263672"/>
      <use xlink:href="#DejaVuSans-64" x="608.642578"/>
      <use xlink:href="#DejaVuSans-73" x="672.119141"/>
      <use xlink:href="#DejaVuSans-29" x="724.21875"/>
     </g>
    </g>
   </g>
   <g id="matplotlib.axis_2">
    <g id="ytick_1">
     <g id="line2d_17">
      <path d="M 62.3 304.807403 
L 709.2 304.807403 
" clip-path="url(#p70d68008a4)" style="fill: none; stroke: #b0b0b0; stroke-width: 0.8; stroke-linecap: square"/>
     </g>
     <g id="line2d_18">
      <defs>
       <path id="m26a49db62d" d="M 0 0 
L -3.5 0 
" style="stroke: #000000; stroke-width: 0.8"/>
      </defs>
      <g>
       <use xlink:href="#m26a49db62d" x="62.3" y="304.807403" style="stroke: #000000; stroke-width: 0.8"/>
      </g>
     </g>
     <g id="text_10">
      <!-- 0 -->
      <g transform="translate(48.9375 308.606622) scale(0.1 -0.1)">
       <use xlink:href="#DejaVuSans-30"/>
      </g>
     </g>
    </g>
    <g id="ytick_2">
     <g id="line2d_19">
      <path d="M 62.3 268.829603 
L 709.2 268.829603 
" clip-path="url(#p70d68008a4)" style="fill: none; stroke: #b0b0b0; stroke-width: 0.8; stroke-linecap: square"/>
     </g>
     <g id="line2d_20">
      <g>
       <use xlink:href="#m26a49db62d" x="62.3" y="268.829603" style="stroke: #000000; stroke-width: 0.8"/>
      </g>
     </g>
     <g id="text_11">
      <!-- 25 -->
      <g transform="translate(42.575 272.628822) scale(0.1 -0.1)">
       <use xlink:href="#DejaVuSans-32"/>
       <use xlink:href="#DejaVuSans-35" x="63.623047"/>
      </g>
     </g>
    </g>
    <g id="ytick_3">
     <g id="line2d_21">
      <path d="M 62.3 232.851804 
L 709.2 232.851804 
" clip-path="url(#p70d68008a4)" style="fill: none; stroke: #b0b0b0; stroke-width: 0.8; stroke-linecap: square"/>
     </g>
     <g id="line2d_22">
      <g>
       <use xlink:href="#m26a49db62d" x="62.3" y="232.851804" style="stroke: #000000; stroke-width: 0.8"/>
      </g>
     </g>
     <g id="text_12">
      <!-- 50 -->
      <g transform="translate(42.575 236.651022) scale(0.1 -0.1)">
       <use xlink:href="#DejaVuSans-35"/>
       <use xlink:href="#DejaVuSans-30" x="63.623047"/>
      </g>
     </g>
    </g>
    <g id="ytick_4">
     <g id="line2d_23">
      <path d="M 62.3 196.874004 
L 709.2 196.874004 
" clip-path="url(#p70d68008a4)" style="fill: none; stroke: #b0b0b0; stroke-width: 0.8; stroke-linecap: square"/>
     </g>
     <g id="line2d_24">
      <g>
       <use xlink:href="#m26a49db62d" x="62.3" y="196.874004" style="stroke: #000000; stroke-width: 0.8"/>
      </g>
     </g>
     <g id="text_13">
      <!-- 75 -->
      <g transform="translate(42.575 200.673223) scale(0.1 -0.1)">
       <defs>
        <path id="DejaVuSans-37" d="M 525 4666 
L 3525 4666 
L 3525 4397 
L 1831 0 
L 1172 0 
L 2766 4134 
L 525 4134 
L 525 4666 
z
" transform="scale(0.015625)"/>
       </defs>
       <use xlink:href="#DejaVuSans-37"/>
       <use xlink:href="#DejaVuSans-35" x="63.623047"/>
      </g>
     </g>
    </g>
    <g id="ytick_5">
     <g id="line2d_25">
      <path d="M 62.3 160.896204 
L 709.2 160.896204 
" clip-path="url(#p70d68008a4)" style="fill: none; stroke: #b0b0b0; stroke-width: 0.8; stroke-linecap: square"/>
     </g>
     <g id="line2d_26">
      <g>
       <use xlink:href="#m26a49db62d" x="62.3" y="160.896204" style="stroke: #000000; stroke-width: 0.8"/>
      </g>
     </g>
     <g id="text_14">
      <!-- 100 -->
      <g transform="translate(36.2125 164.695423) scale(0.1 -0.1)">
       <use xlink:href="#DejaVuSans-31"/>
       <use xlink:href="#DejaVuSans-30" x="63.623047"/>
       <use xlink:href="#DejaVuSans-30" x="127.246094"/>
      </g>
     </g>
    </g>
    <g id="ytick_6">
     <g id="line2d_27">
      <path d="M 62.3 124.918404 
L 709.2 124.918404 
" clip-path="url(#p70d68008a4)" style="fill: none; stroke: #b0b0b0; stroke-width: 0.8; stroke-linecap: square"/>
     </g>
     <g id="line2d_28">
      <g>
       <use xlink:href="#m26a49db62d" x="62.3" y="124.918404" style="stroke: #000000; stroke-width: 0.8"/>
      </g>
     </g>
     <g id="text_15">
      <!-- 125 -->
      <g transform="translate(36.2125 128.717623) scale(0.1 -0.1)">
       <use xlink:href="#DejaVuSans-31"/>
       <use xlink:href="#DejaVuSans-32" x="63.623047"/>
       <use xlink:href="#DejaVuSans-35" x="127.246094"/>
      </g>
     </g>
    </g>
    <g id="ytick_7">
     <g id="line2d_29">
      <path d="M 62.3 88.940605 
L 709.2 88.940605 
" clip-path="url(#p70d68008a4)" style="fill: none; stroke: #b0b0b0; stroke-width: 0.8; stroke-linecap: square"/>
     </g>
     <g id="line2d_30">
      <g>
       <use xlink:href="#m26a49db62d" x="62.3" y="88.940605" style="stroke: #000000; stroke-width: 0.8"/>
      </g>
     </g>
     <g id="text_16">
      <!-- 150 -->
      <g transform="translate(36.2125 92.739823) scale(0.1 -0.1)">
       <use xlink:href="#DejaVuSans-31"/>
       <use xlink:href="#DejaVuSans-35" x="63.623047"/>
       <use xlink:href="#DejaVuSans-30" x="127.246094"/>
      </g>
     </g>
    </g>
    <g id="ytick_8">
     <g id="line2d_31">
      <path d="M 62.3 52.962805 
L 709.2 52.962805 
" clip-path="url(#p70d68008a4)" style="fill: none; stroke: #b0b0b0; stroke-width: 0.8; stroke-linecap: square"/>
     </g>
     <g id="line2d_32">
      <g>
       <use xlink:href="#m26a49db62d" x="62.3" y="52.962805" style="stroke: #000000; stroke-width: 0.8"/>
      </g>
     </g>
     <g id="text_17">
      <!-- 175 -->
      <g transform="translate(36.2125 56.762024) scale(0.1 -0.1)">
       <use xlink:href="#DejaVuSans-31"/>
       <use xlink:href="#DejaVuSans-37" x="63.623047"/>
       <use xlink:href="#DejaVuSans-35" x="127.246094"/>
      </g>
     </g>
    </g>
    <g id="text_18">
     <!-- Received data (MB) -->
     <g transform="translate(30.132812 221.2975) rotate(-90) scale(0.1 -0.1)">
      <defs>
       <path id="DejaVuSans-52" d="M 2841 2188 
Q 3044 2119 3236 1894 
Q 3428 1669 3622 1275 
L 4263 0 
L 3584 0 
L 2988 1197 
Q 2756 1666 2539 1819 
Q 2322 1972 1947 1972 
L 1259 1972 
L 1259 0 
L 628 0 
L 628 4666 
L 2053 4666 
Q 2853 4666 3247 4331 
Q 3641 3997 3641 3322 
Q 3641 2881 3436 2590 
Q 3231 2300 2841 2188 
z
M 1259 4147 
L 1259 2491 
L 2053 2491 
Q 2509 2491 2742 2702 
Q 2975 2913 2975 3322 
Q 2975 3731 2742 3939 
Q 2509 4147 2053 4147 
L 1259 4147 
z
" transform="scale(0.015625)"/>
       <path id="DejaVuSans-76" d="M 191 3500 
L 800 3500 
L 1894 563 
L 2988 3500 
L 3597 3500 
L 2284 0 
L 1503 0 
L 191 3500 
z
" transform="scale(0.015625)"/>
       <path id="DejaVuSans-61" d="M 2194 1759 
Q 1497 1759 1228 1600 
Q 959 1441 959 1056 
Q 959 750 1161 570 
Q 1363 391 1709 391 
Q 2188 391 2477 730 
Q 2766 1069 2766 1631 
L 2766 1759 
L 2194 1759 
z
M 3341 1997 
L 3341 0 
L 2766 0 
L 2766 531 
Q 2569 213 2275 61 
Q 1981 -91 1556 -91 
Q 1019 -91 701 211 
Q 384 513 384 1019 
Q 384 1609 779 1909 
Q 1175 2209 1959 2209 
L 2766 2209 
L 2766 2266 
Q 2766 2663 2505 2880 
Q 2244 3097 1772 3097 
Q 1472 3097 1187 3025 
Q 903 2953 641 2809 
L 641 3341 
Q 956 3463 1253 3523 
Q 1550 3584 1831 3584 
Q 2591 3584 2966 3190 
Q 3341 2797 3341 1997 
z
" transform="scale(0.015625)"/>
       <path id="DejaVuSans-74" d="M 1172 4494 
L 1172 3500 
L 2356 3500 
L 2356 3053 
L 1172 3053 
L 1172 1153 
Q 1172 725 1289 603 
Q 1406 481 1766 481 
L 2356 481 
L 2356 0 
L 1766 0 
Q 1100 0 847 248 
Q 594 497 594 1153 
L 594 3053 
L 172 3053 
L 172 3500 
L 594 3500 
L 594 4494 
L 1172 4494 
z
" transform="scale(0.015625)"/>
       <path id="DejaVuSans-4d" d="M 628 4666 
L 1569 4666 
L 2759 1491 
L 3956 4666 
L 4897 4666 
L 4897 0 
L 4281 0 
L 4281 4097 
L 3078 897 
L 2444 897 
L 1241 4097 
L 1241 0 
L 628 0 
L 628 4666 
z
" transform="scale(0.015625)"/>
       <path id="DejaVuSans-42" d="M 1259 2228 
L 1259 519 
L 2272 519 
Q 2781 519 3026 730 
Q 3272 941 3272 1375 
Q 3272 1813 3026 2020 
Q 2781 2228 2272 2228 
L 1259 2228 
z
M 1259 4147 
L 1259 2741 
L 2194 2741 
Q 2656 2741 2882 2914 
Q 3109 3088 3109 3444 
Q 3109 3797 2882 3972 
Q 2656 4147 2194 4147 
L 1259 4147 
z
M 628 4666 
L 2241 4666 
Q 2963 4666 3353 4366 
Q 3744 4066 3744 3513 
Q 3744 3084 3544 2831 
Q 3344 2578 2956 2516 
Q 3422 2416 3680 2098 
Q 3938 1781 3938 1306 
Q 3938 681 3513 340 
Q 3088 0 2303 0 
L 628 0 
L 628 4666 
z
" transform="scale(0.015625)"/>
      </defs>
      <use xlink:href="#DejaVuSans-52"/>
      <use xlink:href="#DejaVuSans-65" x="64.982422"/>
      <use xlink:href="#DejaVuSans-63" x="126.505859"/>
      <use xlink:href="#DejaVuSans-65" x="181.486328"/>
      <use xlink:href="#DejaVuSans-69" x="243.009766"/>
      <use xlink:href="#DejaVuSans-76" x="270.792969"/>
      <use xlink:href="#DejaVuSans-65" x="329.972656"/>
      <use xlink:href="#DejaVuSans-64" x="391.496094"/>
      <use xlink:href="#DejaVuSans-20" x="454.972656"/>
      <use xlink:href="#DejaVuSans-64" x="486.759766"/>
      <use xlink:href="#DejaVuSans-61" x="550.236328"/>
      <use xlink:href="#DejaVuSans-74" x="611.515625"/>
      <use xlink:href="#DejaVuSans-61" x="650.724609"/>
      <use xlink:href="#DejaVuSans-20" x="712.003906"/>
      <use xlink:href="#DejaVuSans-28" x="743.791016"/>
      <use xlink:href="#DejaVuSans-4d" x="782.804688"/>
      <use xlink:href="#DejaVuSans-42" x="869.083984"/>
      <use xlink:href="#DejaVuSans-29" x="937.6875"/>
     </g>
    </g>
   </g>
   <g id="line2d_33">
    <path d="M 91.704545 304.805455 
L 92.015618 304.665564 
L 92.142613 304.590592 
L 93.130992 304.150892 
L 93.514634 303.952395 
L 93.782809 303.828715 
L 95.619399 302.957419 
L 96.028359 302.79937 
L 96.547942 302.550139 
L 96.718688 302.45693 
L 97.272113 302.183384 
L 97.647704 301.986836 
L 98.355104 301.678843 
L 99.040316 301.362745 
L 99.23039 301.275615 
L 100.109667 300.878466 
L 100.272557 300.811599 
L 100.538271 300.665708 
L 102.037734 299.992986 
L 102.248566 299.875463 
L 110.050849 296.299097 
L 110.42632 296.155232 
L 111.108137 295.849265 
L 113.743882 294.710501 
L 114.028866 294.595004 
L 114.213996 294.513953 
L 114.576412 294.364087 
L 114.885633 294.232302 
L 115.068665 294.151251 
L 115.423871 294.005359 
L 116.276128 293.632526 
L 117.000226 293.279955 
L 117.164642 293.221193 
L 117.640005 293.002356 
L 117.954743 292.862543 
L 118.426509 292.643706 
L 120.326057 291.849408 
L 120.639021 291.70757 
L 120.783237 291.654887 
L 121.352979 291.480627 
L 121.49927 291.421866 
L 121.974826 291.225317 
L 122.250262 291.081452 
L 122.684556 290.884904 
L 122.811681 290.811958 
L 123.29112 290.597174 
L 123.433023 290.534359 
L 123.675454 290.420888 
L 124.455453 290.112895 
L 124.619459 290.029818 
L 124.962875 289.892032 
L 125.249118 289.78464 
L 125.596888 289.630643 
L 126.200102 289.351018 
L 126.535611 289.217362 
L 126.826335 289.095708 
L 126.983482 289.030867 
L 127.768212 288.704638 
L 127.924919 288.631692 
L 129.135865 288.110941 
L 129.646899 287.890078 
L 129.809392 287.813079 
L 130.316396 287.600321 
L 130.469211 287.531428 
L 132.604786 286.591239 
L 133.500112 286.188011 
L 133.860793 286.040093 
L 135.306438 285.44437 
L 146.622777 280.374643 
L 147.21093 280.099071 
L 147.355814 280.026125 
L 147.778426 279.843761 
L 147.918927 279.784999 
L 149.391931 279.15288 
L 149.702795 279.027329 
L 150.074096 278.873255 
L 150.508945 278.672654 
L 150.869569 278.518658 
L 151.095779 278.413292 
L 152.120769 277.955355 
L 152.295987 277.87633 
L 152.626929 277.730439 
L 152.78396 277.661624 
L 153.023046 277.541996 
L 155.479547 276.44781 
L 155.893885 276.301919 
L 156.04975 276.226947 
L 156.461502 276.07295 
L 156.613178 276.000005 
L 159.163681 274.881504 
L 159.90144 274.522854 
L 160.210908 274.38912 
L 160.710149 274.143942 
L 162.850038 273.153096 
L 163.016023 273.076098 
L 169.069462 270.397447 
L 169.258141 270.279923 
L 169.615591 270.111743 
L 170.120547 269.880748 
L 170.300548 269.779435 
L 170.880713 269.489678 
L 171.140317 269.355944 
L 171.373799 269.240525 
L 171.665888 269.084424 
L 172.229105 268.845324 
L 172.542573 268.697407 
L 172.894153 268.521121 
L 173.358556 268.290126 
L 173.547832 268.209153 
L 173.803817 268.089526 
L 174.298929 267.868662 
L 174.508893 267.769375 
L 174.930906 267.59309 
L 175.887547 267.181757 
L 176.157269 267.052076 
L 176.302551 266.997366 
L 176.589135 266.894027 
L 176.957724 266.735977 
L 177.096093 266.677216 
L 177.390608 266.549561 
L 179.267663 265.728921 
L 179.460607 265.633687 
L 179.869191 265.449374 
L 180.228875 265.293273 
L 180.446374 265.210196 
L 181.859692 264.559764 
L 181.989397 264.498976 
L 182.526909 264.263928 
L 182.703652 264.158562 
L 183.786575 263.678337 
L 184.444926 263.394736 
L 184.858082 263.248767 
L 185.276167 263.056272 
L 185.435867 262.975221 
L 185.894786 262.768541 
L 188.27265 261.7413 
L 188.445871 261.670381 
L 189.346393 261.279311 
L 189.980536 261.028131 
L 190.254196 260.902425 
L 190.412695 260.815295 
L 190.788082 260.641036 
L 192.033184 260.045313 
L 192.489271 259.846738 
L 194.766117 258.756683 
L 195.016756 258.62895 
L 195.194805 258.562161 
L 195.487672 258.430376 
L 195.631844 258.359456 
L 196.454297 258.011016 
L 196.742163 257.858968 
L 196.891946 257.786022 
L 199.090106 256.797202 
L 199.240191 256.732439 
L 199.487877 256.600654 
L 200.663445 256.094087 
L 200.856082 256.01101 
L 202.191776 255.423392 
L 202.345294 255.362681 
L 202.603181 255.234948 
L 203.226797 254.926955 
L 203.657675 254.738512 
L 204.13605 254.535885 
L 204.458332 254.394124 
L 204.771052 254.250181 
L 205.019343 254.112395 
L 206.908914 253.328229 
L 207.204691 253.186468 
L 207.523322 253.038472 
L 207.724882 252.949316 
L 209.763633 252.047626 
L 209.890405 251.992917 
L 210.243583 251.834868 
L 210.835735 251.559295 
L 211.187453 251.403273 
L 211.372955 251.310064 
L 212.063956 251.004097 
L 212.25227 250.902784 
L 212.862131 250.716445 
L 213.257217 250.515844 
L 213.831921 250.274718 
L 213.99066 250.187588 
L 218.362723 248.161319 
L 218.75551 247.995165 
L 221.438743 246.793587 
L 221.593297 246.734903 
L 221.938402 246.584881 
L 222.713595 246.270809 
L 223.224572 246.053998 
L 223.374874 245.993288 
L 224.021925 245.727769 
L 224.388085 245.577825 
L 225.274041 245.221201 
L 226.057903 244.878762 
L 226.337475 244.740976 
L 227.006583 244.46135 
L 227.137036 244.406641 
L 227.535867 244.220224 
L 227.759297 244.092569 
L 228.224051 243.896021 
L 228.418966 243.804839 
L 228.847203 243.610317 
L 229.199719 243.44011 
L 229.911513 243.107802 
L 230.074966 243.01662 
L 230.251189 242.931517 
L 230.537817 242.79373 
L 235.34131 240.631701 
L 235.61561 240.504046 
L 235.917156 240.358154 
L 236.282572 240.183895 
L 236.499276 240.076503 
L 236.967279 239.851587 
L 237.20717 239.719879 
L 237.644708 239.553725 
L 240.97913 237.934736 
L 241.245528 237.817212 
L 241.955601 237.488956 
L 242.135165 237.387643 
L 243.277427 236.895259 
L 243.42921 236.812182 
L 244.947224 236.082725 
L 245.500524 235.969409 
L 245.814203 235.811283 
L 249.324551 234.261186 
L 249.865631 234.048428 
L 250.36385 233.817433 
L 250.524823 233.760698 
L 251.256378 233.432442 
L 251.425663 233.375707 
L 254.221024 232.15184 
L 254.389522 232.066736 
L 254.724871 231.890451 
L 254.875975 231.837768 
L 255.3526 231.5703 
L 255.497694 231.50546 
L 255.67162 231.426435 
L 256.413544 231.061707 
L 256.572168 230.98276 
L 256.865338 230.848948 
L 257.210603 230.686847 
L 257.507637 230.547034 
L 257.794498 230.4133 
L 258.831174 229.949285 
L 259.072428 229.835813 
L 260.904833 229.003017 
L 261.153266 228.877388 
L 261.294936 228.806468 
L 261.504529 228.733523 
L 262.020916 228.494423 
L 262.439454 228.271533 
L 263.030486 228.000013 
L 263.644011 227.67994 
L 263.902807 227.54005 
L 264.082304 227.4205 
L 264.288605 227.319187 
L 265.541116 226.733595 
L 265.886227 226.591833 
L 266.132181 226.458022 
L 266.387035 226.334419 
L 266.697291 226.202712 
L 266.837953 226.148003 
L 267.790684 225.726539 
L 267.947115 225.673856 
L 268.583902 225.402335 
L 268.746191 225.333442 
L 269.134509 225.173367 
L 275.199231 222.565558 
L 275.37118 222.468297 
L 275.917316 222.215013 
L 276.123798 222.115726 
L 276.497779 221.951598 
L 277.657956 221.434899 
L 278.053875 221.254561 
L 278.478332 221.074223 
L 278.625545 221.003304 
L 279.119745 220.764204 
L 279.860223 220.4785 
L 280.010075 220.415686 
L 282.094204 219.449155 
L 282.512051 219.278948 
L 282.644114 219.210133 
L 282.985219 219.056059 
L 283.151818 218.981087 
L 283.511951 218.823038 
L 283.85833 218.667015 
L 284.336379 218.442177 
L 284.63254 218.312418 
L 284.994863 218.150316 
L 285.294876 218.01253 
L 285.627903 217.850428 
L 286.103323 217.585065 
L 286.748141 217.475646 
L 286.881679 217.416884 
L 287.269468 217.2021 
L 287.458404 217.102812 
L 289.527337 216.140334 
L 290.09865 215.864762 
L 291.021307 215.451403 
L 291.598581 215.190014 
L 291.740707 215.125251 
L 292.066738 214.983334 
L 293.450065 214.363296 
L 293.780218 214.18701 
L 294.135176 214.030988 
L 295.449662 213.429186 
L 295.768901 213.303557 
L 295.976664 213.212375 
L 296.292606 213.070536 
L 296.508748 212.99759 
L 296.843944 212.847646 
L 297.002923 212.784832 
L 297.283297 212.640967 
L 310.098495 206.76081 
L 310.375205 206.620919 
L 310.529033 206.556079 
L 311.645684 206.100168 
L 311.828381 205.998855 
L 312.183172 205.842832 
L 312.338251 205.757806 
L 312.61872 205.621968 
L 312.961163 205.486286 
L 313.151195 205.356527 
L 313.325402 205.28966 
L 314.032991 204.924932 
L 314.184075 204.83375 
L 314.47141 204.675701 
L 314.596749 204.604781 
L 314.923949 204.456863 
L 315.08076 204.400206 
L 315.381194 204.266394 
L 315.793267 204.073898 
L 316.146418 203.919902 
L 316.56682 203.697012 
L 317.464354 203.291758 
L 317.630131 203.212734 
L 318.27018 202.955398 
L 318.439835 202.870294 
L 319.700259 202.278623 
L 319.887789 202.17731 
L 336.282492 194.566641 
L 337.116759 194.455274 
L 337.798358 194.118913 
L 338.124623 193.991258 
L 338.349132 193.883944 
L 338.732549 193.711633 
L 338.864173 193.656924 
L 339.389154 193.458349 
L 339.697709 193.312458 
L 342.22316 192.173694 
L 342.39632 192.104879 
L 342.676333 191.977146 
L 342.830948 191.916436 
L 343.182735 191.756283 
L 345.507268 190.589151 
L 345.81913 190.451365 
L 346.348877 190.210239 
L 346.825841 189.981271 
L 347.011634 189.875904 
L 347.455598 189.648962 
L 347.741361 189.527386 
L 350.926497 188.068472 
L 351.263139 187.920554 
L 351.791827 187.681454 
L 352.257842 187.460591 
L 352.420592 187.383593 
L 352.780686 187.215412 
L 352.999527 187.095862 
L 353.678358 186.85271 
L 353.860818 186.755527 
L 354.194461 186.589295 
L 354.409058 186.492034 
L 354.77094 186.34209 
L 354.951305 186.259091 
L 355.258132 186.121227 
L 355.63916 185.959125 
L 355.817059 185.869969 
L 356.247899 185.687605 
L 356.653655 185.507267 
L 356.869667 185.385691 
L 357.479192 185.104039 
L 357.601871 185.045355 
L 357.872043 184.901412 
L 360.084894 183.920698 
L 360.586551 183.709966 
L 360.978833 183.543812 
L 361.558407 183.310791 
L 361.705563 183.250003 
L 362.166739 183.075743 
L 362.623732 182.862985 
L 363.194548 182.611728 
L 363.349055 182.532703 
L 365.116116 181.714168 
L 365.367714 181.580356 
L 365.802907 181.361519 
L 365.930525 181.314915 
L 366.424064 181.06771 
L 366.589507 181.006922 
L 366.969503 180.826584 
L 367.13831 180.749586 
L 367.44735 180.601668 
L 373.122839 178.012095 
L 373.468878 177.854046 
L 374.086036 177.582526 
L 374.232971 177.529843 
L 374.791941 177.254271 
L 374.94572 177.175246 
L 375.24292 177.023276 
L 375.419196 176.911831 
L 375.967382 176.666652 
L 376.155088 176.573444 
L 376.70991 176.314082 
L 377.01898 176.141849 
L 377.485849 175.910854 
L 377.625937 175.850066 
L 379.759608 174.903798 
L 380.064739 174.774117 
L 381.121078 174.350626 
L 381.817545 174.034528 
L 381.958335 173.981845 
L 382.375473 173.835954 
L 383.043285 173.517829 
L 383.493042 173.315202 
L 383.659315 173.242257 
L 383.995131 173.096365 
L 384.956089 172.676927 
L 385.62133 172.352724 
L 385.741309 172.308146 
L 388.025394 171.323379 
L 388.478665 171.141015 
L 388.947969 170.940414 
L 394.713798 168.286001 
L 395.122092 168.129978 
L 395.338287 168.034744 
L 396.101007 167.744987 
L 396.320843 167.653805 
L 396.672972 167.491703 
L 396.837439 167.404574 
L 400.246102 165.892977 
L 401.296863 165.781609 
L 401.509051 165.676243 
L 402.284577 165.337856 
L 402.46409 165.256806 
L 402.842585 165.084573 
L 402.987612 165.017706 
L 403.412276 164.827236 
L 404.408388 164.369299 
L 405.011267 164.126147 
L 405.158026 164.063333 
L 406.440356 163.467609 
L 406.8153 163.30956 
L 407.097143 163.194141 
L 407.348076 163.060329 
L 412.146139 160.965166 
L 412.278287 160.922615 
L 412.619021 160.764566 
L 412.755902 160.699725 
L 413.135264 160.543702 
L 413.317525 160.472783 
L 419.918676 157.417168 
L 420.496634 157.139569 
L 420.770457 157.030151 
L 421.107303 156.880207 
L 421.270924 156.805235 
L 427.684432 153.923879 
L 427.853608 153.844855 
L 428.578651 153.551046 
L 428.768228 153.455811 
L 429.482617 153.147818 
L 430.762579 152.598699 
L 431.125601 152.458886 
L 432.504378 151.867216 
L 432.668307 151.757797 
L 433.026004 151.624063 
L 434.017206 151.200573 
L 434.155935 151.139862 
L 434.434003 151.004025 
L 434.624976 150.914946 
L 434.932809 150.77303 
L 435.091616 150.714268 
L 435.584994 150.491378 
L 435.726904 150.434643 
L 436.826494 149.946312 
L 436.98879 149.865261 
L 438.003713 149.409428 
L 438.245165 149.277643 
L 438.399847 149.210776 
L 439.160078 148.880494 
L 439.311486 148.82181 
L 439.63522 148.657604 
L 439.888477 148.538054 
L 440.649423 148.221956 
L 440.786739 148.167247 
L 440.984668 148.074116 
L 441.383938 147.887622 
L 441.524639 147.810624 
L 441.938936 147.630286 
L 442.089161 147.583681 
L 442.419713 147.435764 
L 442.630872 147.336476 
L 443.046533 147.115613 
L 443.187961 147.06293 
L 443.89305 146.724543 
L 444.081929 146.637491 
L 444.448355 146.479364 
L 444.797735 146.321315 
L 445.110694 146.181503 
L 445.551378 145.970771 
L 446.754 145.423678 
L 446.917389 145.340601 
L 447.595286 145.048818 
L 447.741581 144.97182 
L 448.653299 144.538198 
L 452.621332 142.64161 
L 453.134882 142.432904 
L 453.354277 142.313354 
L 453.870643 142.118832 
L 454.026052 142.062097 
L 462.824973 138.021715 
L 463.000303 137.954848 
L 463.46817 137.713722 
L 463.633496 137.620513 
L 464.206707 137.355072 
L 465.000522 136.99237 
L 466.121481 136.489855 
L 467.005201 136.076496 
L 467.382859 135.916421 
L 468.349659 135.454431 
L 468.487852 135.365353 
L 468.730019 135.247752 
L 469.114633 135.091729 
L 469.427651 134.960021 
L 477.050252 131.505231 
L 477.43174 131.351235 
L 477.716006 131.221554 
L 480.131425 130.058475 
L 481.374748 129.947108 
L 481.498279 129.884293 
L 482.338145 129.448645 
L 482.494841 129.381779 
L 485.233239 128.123465 
L 485.545927 127.975547 
L 486.234199 127.629055 
L 486.389778 127.560162 
L 486.5675 127.464927 
L 486.8184 127.343351 
L 487.171235 127.193407 
L 489.457033 126.259297 
L 489.761602 126.121511 
L 490.928954 125.606838 
L 491.087751 125.535919 
L 491.462162 125.363686 
L 491.594997 125.298845 
L 498.417471 122.036551 
L 498.777195 121.866344 
L 498.957093 121.799477 
L 500.559272 121.072047 
L 500.83025 120.932234 
L 503.502558 119.696209 
L 503.777481 119.568554 
L 504.08118 119.432794 
L 504.782648 119.143038 
L 504.930073 119.06604 
L 510.886477 116.367048 
L 511.329107 116.168474 
L 511.664892 115.994215 
L 512.096184 115.801719 
L 512.343353 115.667985 
L 513.31071 115.230311 
L 513.493237 115.161418 
L 513.834704 115.021605 
L 513.986946 114.91016 
L 514.389144 114.746033 
L 515.039685 114.433987 
L 515.50847 114.211175 
L 515.756891 114.085469 
L 516.184547 113.919315 
L 516.487658 113.763292 
L 518.462457 112.855523 
L 518.800623 112.723816 
L 518.960607 112.636686 
L 520.411299 111.978148 
L 520.566354 111.897097 
L 521.018287 111.680287 
L 521.175488 111.605315 
L 523.79083 110.342949 
L 524.130265 110.207189 
L 524.259234 110.1464 
L 528.436536 108.337019 
L 528.820303 108.189024 
L 529.163689 108.028949 
L 529.513097 107.868873 
L 576.232968 86.424861 
L 576.576876 86.279048 
L 577.03233 86.098632 
L 577.180263 86.037844 
L 577.511529 85.883847 
L 577.731007 85.786586 
L 578.171049 85.588012 
L 578.406457 85.484672 
L 579.100786 85.176757 
L 580.585592 85.067338 
L 580.728502 85.012629 
L 581.528983 84.637769 
L 581.88049 84.469589 
L 582.78799 84.042046 
L 582.966163 83.967074 
L 583.43049 83.727974 
L 583.836576 83.573978 
L 584.305302 83.375403 
L 584.614105 83.243696 
L 585.182337 82.990412 
L 585.587177 82.799943 
L 586.110417 82.585158 
L 586.400273 82.441293 
L 586.895929 82.230561 
L 587.108362 82.127221 
L 587.524249 81.961067 
L 587.949658 81.740204 
L 588.576923 81.436263 
L 588.710613 81.389659 
L 589.009989 81.243767 
L 589.582163 81.00872 
L 589.782926 80.90538 
L 592.408133 79.610672 
L 592.705806 79.468755 
L 593.075671 79.30868 
L 593.820506 78.980424 
L 594.098396 78.840612 
L 594.393633 78.69472 
L 594.541454 78.615696 
L 594.988554 78.40699 
L 595.139228 78.338097 
L 595.724465 78.08076 
L 596.380251 77.797083 
L 621.100511 66.583706 
L 621.290923 66.490576 
L 621.622797 66.34258 
L 622.267887 66.067008 
L 622.457243 65.963745 
L 622.785098 65.819803 
L 623.135979 65.677964 
L 623.683375 65.426706 
L 624.086407 65.228132 
L 624.711522 64.980927 
L 626.778788 64.081263 
L 627.080594 63.933346 
L 627.220072 63.874584 
L 628.123933 63.503776 
L 628.420927 63.353832 
L 629.326634 62.901974 
L 631.533533 61.890866 
L 631.985812 61.704449 
L 632.301418 61.536269 
L 633.01316 61.228276 
L 633.166825 61.145198 
L 633.856813 60.808838 
L 634.006291 60.74805 
L 635.148126 60.231351 
L 635.599434 60.016566 
L 635.979932 59.787676 
L 636.255026 59.657917 
L 636.387698 59.599155 
L 636.746095 59.445158 
L 638.587944 58.598177 
L 639.351166 58.322605 
L 639.875849 58.117952 
L 640.042996 58.049058 
L 640.490977 57.864668 
L 640.671583 57.799827 
L 640.935893 57.676225 
L 641.493719 57.384442 
L 641.733367 57.271049 
L 641.981027 57.149395 
L 642.384268 56.954873 
L 643.163564 56.584065 
L 643.296502 56.529356 
L 644.719785 55.850556 
L 644.950933 55.741137 
L 645.704238 55.390593 
L 646.282308 55.112994 
L 646.47135 55.013706 
L 647.475376 54.57198 
L 649.913424 53.568976 
L 650.106033 53.481847 
L 650.946281 53.090776 
L 651.166815 52.979332 
L 651.574708 52.796967 
L 651.780204 52.661285 
L 652.01005 52.533552 
L 652.559219 52.243796 
L 653.270528 51.909461 
L 653.41085 51.8122 
L 653.95172 51.522444 
L 654.416604 51.309763 
L 654.893963 51.098953 
L 655.923038 50.687621 
L 656.832835 50.298577 
L 657.576869 49.988558 
L 657.814909 49.860903 
L 658.04913 49.767694 
L 664.314204 47.074782 
L 664.478049 47.018046 
L 665.075559 46.740447 
L 665.237883 46.669528 
L 665.695325 46.462848 
L 665.892014 46.367691 
L 666.263204 46.225775 
L 666.755014 45.994858 
L 667.040061 45.850915 
L 667.186074 45.790127 
L 669.664084 44.596654 
L 669.866582 44.481157 
L 672.686003 43.344419 
L 672.825154 43.269447 
L 673.2028 43.119503 
L 673.924765 42.758827 
L 674.089581 42.677854 
L 674.420831 42.537964 
L 674.625461 42.454887 
L 675.017408 42.317101 
L 675.494091 42.112447 
L 675.636064 42.043554 
L 676.123028 41.824717 
L 676.41862 41.676799 
L 676.951849 41.417437 
L 677.403971 41.200626 
L 678.100947 40.890607 
L 678.227906 40.825766 
L 679.795455 40.114545 
L 679.795455 40.114545 
" clip-path="url(#p70d68008a4)" style="fill: none; stroke: #1f77b4; stroke-width: 1.5; stroke-linecap: square"/>
   </g>
   <g id="line2d_34">
    <path d="M 91.704545 304.805455 
L 91.979069 304.686593 
L 92.716176 304.427434 
L 93.122693 304.269601 
L 93.539018 304.092282 
L 94.178351 303.81169 
L 95.672025 303.153078 
L 95.841804 303.080981 
L 96.149888 302.940685 
L 100.195289 301.167497 
L 100.703501 300.994076 
L 100.902008 300.906391 
L 101.469059 300.692049 
L 101.689302 300.602416 
L 102.036493 300.43484 
L 102.299204 300.317926 
L 103.113157 299.959392 
L 103.28634 299.885347 
L 103.716762 299.700234 
L 129.658219 288.591506 
L 130.435294 288.271943 
L 130.638187 288.176464 
L 131.113794 287.971865 
L 131.513404 287.800392 
L 131.972083 287.609433 
L 132.288379 287.498366 
L 132.906062 287.243105 
L 133.492809 286.960564 
L 133.943284 286.769605 
L 134.178609 286.65464 
L 134.64447 286.446145 
L 134.849733 286.366254 
L 137.479987 285.251679 
L 137.747543 285.117228 
L 138.519191 284.793768 
L 139.038922 284.587221 
L 140.798313 283.866254 
L 145.076209 281.962513 
L 145.498164 281.796886 
L 172.563219 269.965244 
L 173.032472 269.743108 
L 173.227405 269.633989 
L 175.424333 268.626585 
L 175.701011 268.494083 
L 175.947712 268.37717 
L 188.523555 262.876391 
L 188.780808 262.763375 
L 189.393818 262.484731 
L 189.880711 262.31131 
L 190.791405 261.943032 
L 191.086451 261.800788 
L 193.383742 260.888863 
L 193.721392 260.742721 
L 194.092227 260.569299 
L 194.496897 260.407569 
L 195.079216 260.169845 
L 197.425963 259.148801 
L 198.080586 258.835083 
L 198.662755 258.572028 
L 198.918531 258.466805 
L 199.536856 258.174522 
L 199.675799 258.127756 
L 201.497838 257.348333 
L 201.705164 257.243111 
L 202.691688 256.82612 
L 202.868391 256.744281 
L 203.252571 256.576705 
L 203.60365 256.422768 
L 204.591105 256.027211 
L 205.257584 255.701802 
L 205.728161 255.508895 
L 206.190251 255.329628 
L 206.709708 255.13672 
L 206.971308 255.010064 
L 207.355957 254.836643 
L 207.606826 254.754803 
L 208.116591 254.519028 
L 208.934004 254.152699 
L 209.438186 253.895489 
L 209.690403 253.764936 
L 210.051995 253.607103 
L 212.388579 252.593853 
L 212.997446 252.342489 
L 213.396737 252.188553 
L 216.971173 250.680369 
L 217.302849 250.534227 
L 217.655538 250.358857 
L 218.105963 250.202973 
L 218.268598 250.091905 
L 218.742067 249.858078 
L 219.269113 249.614508 
L 220.067296 249.281305 
L 220.189809 249.244282 
L 220.622673 249.068912 
L 221.223529 248.784423 
L 221.673462 248.605155 
L 224.50086 247.387307 
L 224.962094 247.174914 
L 225.273096 247.030721 
L 225.731835 246.847556 
L 225.933989 246.746231 
L 226.554105 246.496816 
L 226.778927 246.393542 
L 227.189827 246.210378 
L 227.624949 246.015522 
L 228.087043 245.853792 
L 228.752973 245.596582 
L 230.425045 244.895102 
L 230.779234 244.752857 
L 232.054464 244.12737 
L 232.344206 244.010456 
L 232.829168 243.827292 
L 233.339492 243.585671 
L 233.676096 243.447323 
L 233.919042 243.338204 
L 234.403022 243.170628 
L 234.814218 242.999155 
L 235.663625 242.599701 
L 235.84943 242.513964 
L 236.170133 242.381462 
L 236.386114 242.274292 
L 236.894958 242.05995 
L 237.080894 241.974214 
L 237.584026 241.767667 
L 237.853567 241.648805 
L 238.930705 241.136334 
L 239.355094 240.947324 
L 239.537071 240.859639 
L 240.410091 240.41147 
L 240.61911 240.321837 
L 241.377256 240.01981 
L 241.632788 239.922382 
L 242.068457 239.762601 
L 242.254827 239.653481 
L 244.508898 238.685048 
L 244.733709 238.573981 
L 245.380468 238.268057 
L 247.199726 237.486685 
L 247.41598 237.400949 
L 249.665669 236.414979 
L 249.90384 236.301962 
L 250.263695 236.155821 
L 251.626429 235.571253 
L 251.817171 235.503054 
L 252.211609 235.321838 
L 252.373383 235.245844 
L 252.761558 235.132828 
L 252.8858 235.07632 
L 253.099433 234.961355 
L 253.432591 234.809367 
L 254.828296 234.21116 
L 255.963423 233.698689 
L 256.554952 233.484348 
L 257.737195 233.005003 
L 257.955131 232.899781 
L 258.370954 232.695182 
L 258.569337 232.591909 
L 258.960282 232.426281 
L 259.777858 232.093078 
L 260.263964 231.900171 
L 261.419948 231.381854 
L 261.857979 231.175307 
L 262.226845 230.99604 
L 262.718346 230.750522 
L 267.865958 228.603211 
L 268.178069 228.459018 
L 268.731023 228.231037 
L 270.10829 227.660109 
L 270.665463 227.41654 
L 270.84169 227.332752 
L 271.298452 227.143741 
L 271.48745 227.059954 
L 272.011576 226.816384 
L 272.20926 226.738441 
L 272.665828 226.56502 
L 272.910543 226.448106 
L 275.833266 225.109447 
L 276.023401 225.021762 
L 276.392448 224.850289 
L 276.592983 224.760655 
L 277.239595 224.48396 
L 278.919523 223.751303 
L 279.098419 223.667515 
L 279.820604 223.36354 
L 280.013997 223.273906 
L 280.37822 223.114124 
L 280.720552 222.940703 
L 281.492835 222.632831 
L 282.418456 222.227531 
L 282.893604 222.054109 
L 283.059952 221.978115 
L 283.411127 221.820282 
L 283.819475 221.644912 
L 286.726005 220.446549 
L 286.952571 220.343275 
L 288.586128 219.655434 
L 288.788202 219.544367 
L 290.763302 218.70259 
L 291.118297 218.564242 
L 307.402712 211.467595 
L 307.636847 211.362373 
L 308.123648 211.118803 
L 309.775586 210.444603 
L 310.043977 210.302358 
L 311.516189 209.708048 
L 311.884578 209.536575 
L 312.018541 209.489809 
L 312.353206 209.341719 
L 313.848098 208.784431 
L 315.466658 208.040082 
L 331.305127 201.149983 
L 332.22413 200.764168 
L 332.502581 200.664792 
L 332.826881 200.520599 
L 333.510454 200.197138 
L 333.941296 200.010076 
L 334.174131 199.906803 
L 334.872226 199.567754 
L 336.142037 198.971495 
L 336.538624 198.811713 
L 336.908344 198.657777 
L 338.633296 197.893943 
L 339.004679 197.751698 
L 339.44789 197.537357 
L 339.676496 197.436032 
L 340.068718 197.268456 
L 340.316269 197.145697 
L 340.659295 197.009298 
L 340.956245 196.865104 
L 343.408705 195.775861 
L 343.747214 195.635565 
L 343.982256 195.5206 
L 345.578754 194.823016 
L 346.950734 194.181941 
L 347.443701 193.985136 
L 349.401901 193.217405 
L 349.946797 193.104388 
L 350.084689 193.022549 
L 350.480767 192.853024 
L 354.362108 191.27859 
L 354.808845 191.081785 
L 355.346266 190.85965 
L 356.096591 190.526446 
L 356.543383 190.353025 
L 356.709055 190.277031 
L 356.998474 190.136735 
L 357.179619 190.052947 
L 357.763603 189.801583 
L 358.043321 189.669081 
L 358.766228 189.380695 
L 359.19766 189.191684 
L 359.723706 188.98124 
L 360.405909 188.683111 
L 360.839481 188.521381 
L 361.091327 188.398621 
L 361.479586 188.2252 
L 365.067906 186.754039 
L 365.48301 186.592309 
L 366.610395 186.11686 
L 366.935044 185.999947 
L 372.06948 183.759106 
L 372.475842 183.57789 
L 376.978216 181.604001 
L 377.286732 181.457859 
L 377.812853 181.202598 
L 380.696694 179.975007 
L 381.075172 179.824968 
L 381.286305 179.743128 
L 382.232697 179.330034 
L 382.470039 179.224812 
L 389.923714 175.922007 
L 390.222155 175.793402 
L 390.682161 175.592701 
L 390.840411 175.542038 
L 393.281566 174.495663 
L 393.509389 174.376801 
L 394.086774 174.146871 
L 394.274651 174.068929 
L 394.662317 173.91889 
L 395.100294 173.735725 
L 395.421393 173.575944 
L 395.835793 173.420059 
L 396.416178 173.190129 
L 396.990592 172.954354 
L 397.671257 172.660121 
L 398.138579 172.457471 
L 399.829504 171.726762 
L 400.637891 171.416942 
L 407.755874 168.262227 
L 408.238776 168.034246 
L 408.433678 167.948509 
L 408.863461 167.738065 
L 409.07865 167.634791 
L 412.241407 166.25911 
L 412.440201 166.167527 
L 413.485628 165.678439 
L 413.760633 165.55568 
L 414.470457 165.265345 
L 414.643423 165.175712 
L 415.972848 164.59699 
L 416.181125 164.517099 
L 416.511107 164.378752 
L 417.179118 164.265735 
L 417.307005 164.197536 
L 417.669447 164.020217 
L 417.918973 163.899406 
L 419.042558 163.383039 
L 419.560184 163.207668 
L 419.759044 163.112189 
L 422.000554 162.186624 
L 422.470216 161.997614 
L 422.981037 161.794964 
L 423.516857 161.580623 
L 424.408081 161.190911 
L 424.797447 161.019438 
L 425.808472 160.657006 
L 426.01554 160.551784 
L 436.343384 156.317569 
L 436.657487 156.187015 
L 436.882032 156.08569 
L 437.35511 155.91032 
L 437.807593 155.711567 
L 438.331961 155.50502 
L 439.289493 155.070492 
L 439.65489 154.914607 
L 444.386557 152.964101 
L 444.76995 152.796525 
L 445.362938 152.54711 
L 445.573113 152.445785 
L 446.779691 151.982028 
L 447.158004 151.833937 
L 447.490184 151.687796 
L 447.675654 151.600111 
L 448.074553 151.430586 
L 450.323288 150.483587 
L 450.511695 150.395902 
L 451.372835 150.00619 
L 451.810544 149.811335 
L 452.414646 149.536588 
L 476.969164 138.915 
L 477.533534 138.665585 
L 478.668294 138.137526 
L 478.958373 137.993333 
L 480.270527 137.404868 
L 480.564529 137.264572 
L 482.639014 136.422795 
L 482.895438 136.288345 
L 483.23588 136.142203 
L 484.176357 135.688189 
L 485.10162 135.28094 
L 485.395443 135.130901 
L 485.911121 134.922406 
L 486.194525 134.797698 
L 486.884271 134.476186 
L 487.611239 134.13324 
L 488.111676 133.924744 
L 488.348233 133.809779 
L 489.380764 133.410325 
L 489.727979 133.242749 
L 489.916122 133.166755 
L 490.582892 132.870575 
L 491.394859 132.521783 
L 491.897115 132.356155 
L 494.146105 131.317574 
L 494.853787 131.044776 
L 495.227338 130.83628 
L 495.444821 130.72911 
L 497.278342 129.906818 
L 497.494045 129.821082 
L 498.324649 129.462547 
L 498.581661 129.335891 
L 498.83995 129.238463 
L 499.531371 128.942282 
L 500.158027 128.66169 
L 501.222166 128.548674 
L 501.351446 128.484371 
L 501.924153 128.252493 
L 502.143733 128.133631 
L 502.541315 127.977746 
L 503.191264 127.687411 
L 503.455666 127.556858 
L 506.083375 126.377981 
L 506.536582 126.21625 
L 507.25525 125.904481 
L 507.453123 125.828487 
L 507.819804 125.670654 
L 509.048709 125.089984 
L 509.864762 124.752883 
L 510.767422 124.369018 
L 511.262327 124.144934 
L 511.584815 123.965666 
L 516.658565 121.736516 
L 517.102687 121.547506 
L 521.551411 119.589206 
L 521.961085 119.42163 
L 522.165337 119.314459 
L 522.884973 118.940336 
L 524.004727 118.464888 
L 524.298476 118.330438 
L 524.802076 118.098559 
L 525.181232 117.93488 
L 526.397053 117.348364 
L 526.690844 117.202223 
L 527.126868 116.993727 
L 527.624515 116.781334 
L 527.772145 116.717032 
L 528.093018 116.566993 
L 528.347868 116.426697 
L 528.810452 116.208458 
L 529.283478 115.982426 
L 529.802182 115.77393 
L 532.571969 114.624281 
L 533.695441 114.176113 
L 534.033767 114.022177 
L 534.771592 113.690922 
L 535.180496 113.542831 
L 535.559585 113.388895 
L 536.1525 113.118046 
L 536.90163 112.792637 
L 537.547055 112.519839 
L 537.839981 112.381491 
L 539.166245 111.794975 
L 539.321015 111.718981 
L 544.82546 109.273542 
L 545.298504 109.090377 
L 545.784212 108.872139 
L 545.940827 108.805888 
L 547.973671 107.929037 
L 548.290046 107.792638 
L 565.243336 100.366685 
L 565.610171 100.220543 
L 566.171104 99.959436 
L 566.573477 99.79186 
L 569.43955 98.56232 
L 569.607425 98.474635 
L 570.162633 98.258345 
L 571.95976 97.471128 
L 572.345513 97.295758 
L 572.922509 97.044394 
L 573.264855 96.878767 
L 573.587634 96.707293 
L 573.775789 96.639094 
L 574.360416 96.370193 
L 574.527682 96.301993 
L 575.379578 95.881105 
L 575.720414 95.711581 
L 576.188204 95.508931 
L 579.586877 93.998798 
L 580.17385 93.733795 
L 580.728196 93.494122 
L 590.460234 89.279392 
L 591.023014 89.029976 
L 591.736182 88.683133 
L 591.901849 88.611036 
L 592.246054 88.474637 
L 592.448459 88.390849 
L 592.724264 88.270039 
L 593.14054 88.098566 
L 593.541175 87.952424 
L 597.234695 86.339018 
L 597.59636 86.218208 
L 598.48033 85.775885 
L 598.72274 85.653126 
L 599.32995 85.388122 
L 600.522251 84.910726 
L 600.772864 84.803555 
L 601.92821 84.690539 
L 602.036301 84.632082 
L 602.407356 84.489837 
L 602.596522 84.398255 
L 602.916391 84.246267 
L 603.140592 84.113765 
L 605.446598 83.164818 
L 606.181414 82.886174 
L 606.513392 82.769261 
L 606.841215 82.619222 
L 607.15912 82.465286 
L 607.603684 82.25679 
L 607.840054 82.149619 
L 608.512294 81.845644 
L 608.924221 81.650789 
L 609.267893 81.498801 
L 609.513138 81.411116 
L 610.022185 81.190929 
L 610.77842 80.826549 
L 611.530872 80.508934 
L 612.056537 80.282901 
L 612.36626 80.132862 
L 612.79056 79.957492 
L 613.163691 79.791865 
L 613.890197 79.482044 
L 614.354395 79.302777 
L 614.882676 79.067001 
L 615.285976 78.907219 
L 616.341321 78.429823 
L 616.531454 78.361623 
L 616.887445 78.197944 
L 617.12709 78.067391 
L 617.527521 77.921249 
L 618.060642 77.706908 
L 618.432727 77.539332 
L 621.533399 76.229901 
L 621.726393 76.15001 
L 622.439172 75.820704 
L 622.648762 75.727173 
L 623.188591 75.528421 
L 623.371774 75.43489 
L 624.228439 75.084149 
L 624.674071 74.869808 
L 625.68501 74.476199 
L 626.813866 73.996854 
L 627.266701 73.766924 
L 629.316035 72.858897 
L 629.821223 72.632864 
L 630.754413 72.208078 
L 632.697313 71.280565 
L 632.963918 71.148063 
L 633.915542 70.703792 
L 634.696543 70.421251 
L 640.484665 67.944634 
L 640.724788 67.837464 
L 641.927947 67.299662 
L 642.095234 67.210028 
L 642.556103 67.001532 
L 642.926633 66.855391 
L 643.224351 66.726786 
L 643.650574 66.565055 
L 644.147133 66.374097 
L 644.3899 66.290309 
L 645.616414 65.733021 
L 645.991068 65.555703 
L 646.258861 65.427098 
L 656.522434 61.04674 
L 656.853395 60.902547 
L 657.058866 60.822656 
L 657.42353 60.703794 
L 658.382955 60.310185 
L 658.927986 60.076358 
L 659.525976 59.860069 
L 659.711236 59.801612 
L 660.454228 59.472306 
L 661.062873 59.267707 
L 661.242755 59.201456 
L 661.560814 59.035829 
L 665.674892 57.340584 
L 666.192148 57.149625 
L 666.938676 56.861238 
L 667.536601 56.643 
L 667.927331 56.446196 
L 671.361694 55.127022 
L 671.763376 54.938012 
L 672.143598 54.784076 
L 672.936378 54.445027 
L 673.323934 54.281348 
L 673.666911 54.143 
L 676.859999 52.759525 
L 677.664719 52.410733 
L 678.104852 52.237311 
L 679.700946 51.650795 
L 679.700946 51.650795 
" clip-path="url(#p70d68008a4)" style="fill: none; stroke: #ff7f0e; stroke-width: 1.5; stroke-linecap: square"/>
   </g>
   <g id="line2d_35">
    <path d="M 91.704545 304.805455 
L 92.23945 304.620986 
L 93.439248 304.250179 
L 93.719577 304.165076 
L 94.167019 304.047552 
L 96.695586 303.125599 
L 97.123408 302.981734 
L 98.043401 302.659557 
L 98.75895 302.454904 
L 98.970899 302.371827 
L 99.284817 302.250251 
L 99.639267 302.134831 
L 99.988084 302.007098 
L 100.079561 301.982783 
L 100.588485 301.867286 
L 100.686604 301.842971 
L 101.095714 301.727473 
L 101.123809 301.713289 
L 101.768083 301.595766 
L 101.952575 301.52282 
L 102.654064 301.405296 
L 102.824563 301.334377 
L 104.433664 300.953438 
L 104.479551 300.92507 
L 105.240109 300.809573 
L 105.482521 300.718391 
L 106.224146 300.600945 
L 106.857594 300.416477 
L 107.105517 300.3334 
L 107.96849 299.997039 
L 108.429982 299.802517 
L 108.777781 299.670809 
L 109.123426 299.563417 
L 110.528875 299.172347 
L 110.564127 299.158163 
L 111.04354 299.044692 
L 111.365716 298.990061 
L 111.935833 298.838013 
L 111.996148 298.809645 
L 112.632471 298.692121 
L 114.248632 298.268631 
L 114.541427 298.153133 
L 115.284968 297.970769 
L 115.371376 297.946454 
L 116.042135 297.826982 
L 118.819813 297.160261 
L 119.471638 297.044764 
L 121.34576 296.517934 
L 121.900465 296.286939 
L 122.310304 296.139021 
L 122.945709 295.924237 
L 123.455033 295.792529 
L 123.715043 295.723636 
L 124.12754 295.604086 
L 125.475712 295.156281 
L 127.629149 294.386298 
L 127.946439 294.268852 
L 128.931782 293.987123 
L 128.945742 293.979018 
L 129.455776 293.861572 
L 129.885294 293.683183 
L 130.004457 293.628473 
L 130.825301 293.348848 
L 130.964731 293.294139 
L 131.528823 293.091512 
L 132.138426 292.969936 
L 132.287222 292.911174 
L 132.756267 292.815939 
L 133.460097 292.700442 
L 133.812441 292.57076 
L 134.33448 292.396501 
L 134.477036 292.355976 
L 134.878109 292.240479 
L 134.885582 292.232373 
L 135.458334 292.116876 
L 135.654974 292.04393 
L 136.329963 291.926407 
L 138.177011 291.369183 
L 138.557885 291.217212 
L 138.856313 291.097662 
L 139.345612 290.939613 
L 139.729817 290.818037 
L 140.18341 290.662014 
L 140.47576 290.572859 
L 140.734449 290.47965 
L 141.331431 290.3601 
L 141.504409 290.274997 
L 141.887386 290.151394 
L 142.166521 290.027792 
L 143.840265 289.634696 
L 143.936636 289.592144 
L 144.467434 289.47462 
L 144.626139 289.407754 
L 144.726043 289.365202 
L 145.426261 289.249704 
L 145.865673 289.128128 
L 147.052377 288.816083 
L 147.210569 288.767452 
L 149.177432 288.050153 
L 149.631282 287.934655 
L 149.859101 287.8455 
L 150.357696 287.646925 
L 153.389117 286.686473 
L 154.235462 286.439268 
L 154.289974 286.419006 
L 154.953012 286.301482 
L 155.15938 286.198142 
L 155.724646 286.080619 
L 155.977896 285.977279 
L 156.624594 285.861782 
L 156.797662 285.796941 
L 157.429105 285.679417 
L 157.604088 285.604523 
L 158.103538 285.495027 
L 158.556721 285.381556 
L 159.21448 285.266058 
L 159.338053 285.215402 
L 160.019256 285.099904 
L 160.233775 285.028985 
L 165.355028 283.517388 
L 165.487575 283.464705 
L 166.393325 283.160764 
L 167.070405 282.897349 
L 167.249777 282.828456 
L 168.503056 282.36444 
L 169.143829 282.24489 
L 169.819786 282.046316 
L 170.587792 281.930818 
L 170.77065 281.841663 
L 171.259193 281.728191 
L 171.794515 281.604589 
L 172.609308 281.489092 
L 175.735468 280.72924 
L 176.497867 280.613743 
L 177.113028 280.358433 
L 177.500759 280.236857 
L 177.977785 280.054493 
L 182.046234 278.75768 
L 187.747278 276.778015 
L 188.180188 276.662517 
L 188.55788 276.540941 
L 189.095365 276.350472 
L 189.710989 276.234974 
L 189.90873 276.147845 
L 190.33134 276.030321 
L 190.838517 275.904692 
L 191.351549 275.791221 
L 191.868208 275.602778 
L 195.449067 274.326228 
L 195.822999 274.192494 
L 195.955678 274.14589 
L 198.694552 273.327277 
L 198.923294 273.252305 
L 199.553557 273.134782 
L 199.689639 273.039547 
L 200.211068 272.895682 
L 200.952425 272.646451 
L 201.076905 272.612004 
L 201.629174 272.451929 
L 201.97849 272.312116 
L 202.590603 272.12983 
L 203.028909 271.996018 
L 203.075303 271.977859 
L 203.394528 271.868441 
L 203.532802 271.827915 
L 205.229823 271.153168 
L 205.37561 271.110694 
L 205.69126 270.982961 
L 205.862123 270.922173 
L 206.302171 270.804649 
L 206.485934 270.737782 
L 209.834101 269.603071 
L 210.422086 269.404497 
L 210.736411 269.284947 
L 211.262133 269.118793 
L 211.457042 269.045847 
L 211.974908 268.906035 
L 212.185759 268.845247 
L 212.496198 268.725697 
L 213.198425 268.494702 
L 213.675034 268.322469 
L 214.04333 268.204945 
L 215.033717 267.868585 
L 215.371297 267.771324 
L 217.225811 267.108811 
L 217.858902 266.889896 
L 218.210765 266.770346 
L 219.289668 266.504905 
L 220.593123 266.107756 
L 221.274861 265.990233 
L 222.740261 265.603215 
L 223.260311 265.487718 
L 224.014111 265.283064 
L 224.468781 265.167567 
L 225.202946 264.96494 
L 225.267853 264.938599 
L 225.98954 264.823101 
L 226.550617 264.656947 
L 227.189874 264.54145 
L 227.376867 264.448241 
L 227.966904 264.330718 
L 228.175411 264.261824 
L 228.829985 264.146327 
L 229.045872 264.053119 
L 229.679758 263.935595 
L 229.840217 263.856571 
L 232.093719 263.335819 
L 232.720831 263.220322 
L 232.91868 263.123061 
L 233.327695 263.007564 
L 233.32845 263.005537 
L 233.940423 262.888014 
L 234.173795 262.782648 
L 234.730292 262.665124 
L 234.941588 262.575968 
L 235.636399 262.460471 
L 235.769102 262.405839 
L 238.380526 261.658146 
L 238.801136 261.487939 
L 239.118084 261.3461 
L 243.456427 260.00471 
L 243.800859 259.883133 
L 244.434057 259.660244 
L 247.876976 258.432324 
L 247.996193 258.389773 
L 248.534459 258.23375 
L 248.859935 258.144594 
L 250.617043 257.607633 
L 250.998691 257.469846 
L 251.931901 257.165906 
L 252.284071 257.040277 
L 252.789407 256.87007 
L 253.101874 256.768757 
L 253.854108 256.562077 
L 254.450167 256.416186 
L 255.019009 256.300689 
L 255.199116 256.227743 
L 255.961714 256.110219 
L 268.57833 253.091077 
L 268.613409 253.068788 
L 269.385989 252.953291 
L 269.558692 252.880345 
L 270.294303 252.762822 
L 271.645337 252.46496 
L 272.338101 252.349463 
L 272.547108 252.246123 
L 273.274676 252.130626 
L 273.442312 252.045522 
L 274.132849 251.927999 
L 281.210486 250.292799 
L 281.216167 250.28672 
L 281.949797 250.171223 
L 282.178845 250.075988 
L 282.939714 249.960491 
L 283.058467 249.924018 
L 283.772563 249.808521 
L 283.929621 249.745706 
L 284.869715 249.563342 
L 285.492113 249.445818 
L 287.013614 249.123641 
L 287.468479 249.02638 
L 288.075361 248.910883 
L 288.27398 248.835911 
L 288.901506 248.718387 
L 289.100406 248.649494 
L 289.533111 248.531971 
L 289.54684 248.521839 
L 290.233656 248.404316 
L 290.476313 248.305028 
L 290.992052 248.189531 
L 291.774545 247.930246 
L 292.152107 247.80454 
L 292.512904 247.662779 
L 293.163964 247.431706 
L 293.405108 247.322288 
L 293.887046 247.154107 
L 294.601077 246.904876 
L 294.792562 246.844088 
L 295.558984 246.5442 
L 295.75536 246.499622 
L 296.325427 246.3051 
L 296.447794 246.264575 
L 296.895715 246.13692 
L 297.038786 246.088289 
L 297.787438 245.88161 
L 299.409533 245.322359 
L 299.725197 245.192678 
L 300.080484 245.046787 
L 301.882269 244.444985 
L 302.271852 244.327461 
L 302.83856 244.147123 
L 303.021385 244.082282 
L 303.614753 243.901944 
L 305.852427 243.162356 
L 306.60895 243.044832 
L 306.790919 242.984044 
L 307.276629 242.868625 
L 308.934394 242.501792 
L 309.230782 242.41061 
L 311.996596 241.579839 
L 312.588713 241.462316 
L 312.913717 241.336765 
L 314.065451 241.055036 
L 314.41529 240.890908 
L 315.515513 240.491733 
L 315.806974 240.390419 
L 318.619418 239.411731 
L 318.759254 239.359048 
L 319.697221 239.051055 
L 319.859673 238.986214 
L 320.298167 238.868691 
L 328.018344 237.00047 
L 328.693158 236.884973 
L 328.937427 236.769475 
L 329.393473 236.656004 
L 329.395305 236.653978 
L 330.076171 236.53848 
L 330.269792 236.455403 
L 330.762345 236.33788 
L 330.99979 236.238593 
L 331.698382 236.123095 
L 331.787489 236.084674 
L 332.331664 235.975255 
L 332.455004 235.924598 
L 333.018031 235.742234 
L 334.363812 235.298481 
L 334.760213 235.146511 
L 334.880659 235.101933 
L 335.512968 234.984409 
L 337.011949 234.629812 
L 337.077554 234.595366 
L 337.715251 234.477842 
L 337.934939 234.37045 
L 338.742168 234.254952 
L 339.981473 233.989511 
L 340.505805 233.841593 
L 341.336968 233.659229 
L 341.390692 233.643019 
L 341.796127 233.527521 
L 341.814744 233.511311 
L 342.523009 233.395814 
L 342.704987 233.326921 
L 343.41179 233.211423 
L 343.558967 233.154688 
L 344.19665 233.037164 
L 344.359798 232.966245 
L 345.037974 232.850747 
L 345.221451 232.781854 
L 345.968896 232.66433 
L 356.030563 230.336147 
L 356.233398 230.25307 
L 356.607797 230.131493 
L 357.120784 229.977497 
L 359.548522 229.045413 
L 359.861662 228.929993 
L 360.268425 228.784024 
L 360.496625 228.711078 
L 360.914066 228.593555 
L 361.66589 228.384849 
L 362.151959 228.269352 
L 362.636095 228.084961 
L 363.088982 227.957306 
L 363.275258 227.888413 
L 373.340252 224.291784 
L 373.715877 224.156024 
L 374.348346 223.94124 
L 374.553628 223.876399 
L 375.164463 223.694035 
L 375.386601 223.606905 
L 376.458213 223.230019 
L 377.161469 222.950394 
L 378.006418 222.674821 
L 379.382813 222.224989 
L 379.511437 222.188516 
L 382.125156 221.40435 
L 382.803483 221.286826 
L 382.911199 221.246301 
L 383.613693 221.130803 
L 383.822788 221.039621 
L 384.441434 220.922098 
L 384.592839 220.873467 
L 385.010426 220.755944 
L 385.311044 220.640446 
L 385.673178 220.500634 
L 388.106516 219.803597 
L 388.779966 219.688099 
L 388.948062 219.621233 
L 389.509159 219.432789 
L 389.82216 219.329527 
L 390.156743 219.205847 
L 390.365697 219.141084 
L 390.708771 219.011325 
L 390.940073 218.912038 
L 391.416595 218.753989 
L 392.783107 218.310236 
L 393.189216 218.180633 
L 393.532647 218.048847 
L 394.265273 217.773275 
L 394.73314 217.586858 
L 395.49986 217.473542 
L 395.89663 217.331626 
L 396.085545 217.252601 
L 399.639378 216.075338 
L 400.255658 215.953762 
L 400.454121 215.890948 
L 401.262626 215.77545 
L 401.538808 215.653874 
L 402.224287 215.538377 
L 402.442994 215.449221 
L 403.108979 215.333724 
L 403.270546 215.276988 
L 403.57421 215.195937 
L 408.532448 213.443214 
L 408.908061 213.323664 
L 414.247531 211.850566 
L 414.468165 211.767489 
L 415.096945 211.595256 
L 415.115023 211.587151 
L 415.916216 211.471654 
L 416.020811 211.427076 
L 416.794801 211.311578 
L 417.043392 211.210265 
L 417.793653 211.092741 
L 417.878606 211.048163 
L 418.572799 210.932666 
L 418.71757 210.890114 
L 419.419406 210.774617 
L 420.073509 210.608463 
L 420.713699 210.490939 
L 420.933361 210.405836 
L 421.597479 210.286286 
L 423.639856 209.795929 
L 424.411216 209.680431 
L 426.29586 209.202232 
L 426.995288 209.086734 
L 427.21428 208.993526 
L 427.899034 208.878028 
L 440.94094 205.773783 
L 441.187087 205.70902 
L 441.686309 205.577313 
L 442.62671 205.253032 
L 447.989149 203.396969 
L 448.655001 203.281472 
L 448.875322 203.196368 
L 449.542532 203.078845 
L 450.19255 202.900533 
L 450.900141 202.785035 
L 451.180047 202.675617 
L 451.527518 202.552014 
L 452.06928 202.345335 
L 453.649564 201.867135 
L 453.879396 201.842898 
L 454.383626 201.721322 
L 459.379956 200.50143 
L 460.151858 200.385932 
L 460.322131 200.296776 
L 461.800506 199.944205 
L 461.970334 199.889496 
L 462.416026 199.773999 
L 463.320932 199.498426 
L 463.695901 199.380902 
L 463.908906 199.293773 
L 465.754838 198.773022 
L 466.398659 198.655498 
L 466.623145 198.570395 
L 467.309233 198.452871 
L 467.504104 198.375873 
L 468.190712 198.260375 
L 468.348712 198.209719 
L 469.085268 198.094221 
L 469.235724 198.033433 
L 469.653054 197.919962 
L 470.870839 197.613995 
L 471.481216 197.498498 
L 471.673397 197.423526 
L 472.350316 197.308029 
L 472.940605 197.135796 
L 473.634945 197.020298 
L 473.820191 196.941274 
L 474.481064 196.825776 
L 474.689766 196.744726 
L 475.395926 196.627202 
L 475.441695 196.596808 
L 476.10509 196.479284 
L 476.308227 196.371892 
L 476.971436 196.256395 
L 477.148037 196.17737 
L 477.738876 196.061873 
L 477.975645 195.970691 
L 478.393631 195.857219 
L 478.42062 195.83493 
L 478.991995 195.717407 
L 479.183994 195.654592 
L 480.060151 195.407388 
L 480.090615 195.393204 
L 480.779411 195.277706 
L 481.235348 195.129789 
L 482.264738 194.848137 
L 482.753421 194.669825 
L 483.066881 194.566563 
L 483.937274 194.457145 
L 484.568526 194.224124 
L 484.96721 194.090468 
L 485.418871 193.950577 
L 488.147207 193.067124 
L 488.662705 192.951626 
L 489.140703 192.769262 
L 489.809622 192.520031 
L 490.049537 192.430875 
L 490.615462 192.250537 
L 490.780629 192.18367 
L 496.164989 190.443105 
L 496.861404 190.325581 
L 498.167893 189.983141 
L 498.788814 189.867644 
L 498.987092 189.802803 
L 499.59112 189.681227 
L 499.787184 189.606255 
L 500.481722 189.488732 
L 501.100529 189.363103 
L 501.825955 189.245579 
L 502.448041 189.044978 
L 503.150689 188.929481 
L 503.347743 188.86464 
L 503.872366 188.749143 
L 504.235402 188.621488 
L 504.970239 188.504042 
L 505.491217 188.358073 
L 505.935828 188.283179 
L 506.790779 188.078448 
L 506.890868 188.025765 
L 507.359496 187.912294 
L 507.615179 187.873795 
L 508.929121 187.600248 
L 509.040585 187.547565 
L 509.744804 187.432068 
L 509.906086 187.340886 
L 511.822787 186.743136 
L 511.957502 186.698636 
L 512.648668 186.540509 
L 512.779933 186.473642 
L 513.466511 186.358145 
L 513.648506 186.275068 
L 514.291132 186.157544 
L 514.513527 186.058257 
L 515.24163 185.94276 
L 515.456723 185.853604 
L 516.100813 185.738106 
L 516.348367 185.640845 
L 516.960801 185.523322 
L 518.412343 185.026886 
L 519.050919 184.909362 
L 519.267408 184.812101 
L 519.887223 184.696604 
L 520.138542 184.57908 
L 520.774739 184.461634 
L 521.754187 184.202194 
L 521.814921 184.167747 
L 522.597794 184.05225 
L 522.792577 183.96512 
L 523.43131 183.849623 
L 523.595938 183.766546 
L 524.339934 183.651049 
L 524.515486 183.563919 
L 525.183655 183.448422 
L 525.37119 183.38966 
L 526.259737 183.272136 
L 526.437304 183.203243 
L 527.090546 183.087746 
L 527.245987 183.026958 
L 527.923445 182.909434 
L 531.223135 181.904404 
L 531.400622 181.811196 
L 532.011307 181.598437 
L 533.684843 180.933821 
L 534.262488 180.739299 
L 534.436627 180.674458 
L 535.1957 180.457648 
L 535.473068 180.354308 
L 536.100923 180.159786 
L 537.073246 179.801136 
L 537.433991 179.683613 
L 540.825692 178.909578 
L 541.539526 178.79408 
L 541.717273 178.723238 
L 542.568806 178.516481 
L 542.74882 178.455771 
L 543.484887 178.216593 
L 545.365604 177.720157 
L 546.094848 177.60466 
L 546.255281 177.525713 
L 546.852957 177.371639 
L 546.869982 177.361508 
L 547.358121 177.248036 
L 548.323792 176.964359 
L 548.433527 176.919781 
L 548.795176 176.802257 
L 549.106825 176.70297 
L 550.60919 176.283532 
L 551.324778 176.168035 
L 551.482055 176.107324 
L 552.322746 175.928935 
L 552.861193 175.756702 
L 553.48315 175.641205 
L 553.720959 175.537865 
L 554.409494 175.422367 
L 554.590634 175.345369 
L 555.35137 175.227846 
L 555.483243 175.1549 
L 556.155451 175.039402 
L 556.395755 174.936063 
L 557.199087 174.820565 
L 557.382614 174.733436 
L 558.033712 174.617938 
L 558.269398 174.516625 
L 558.886544 174.399101 
L 559.056288 174.332234 
L 559.731438 174.216737 
L 560.418336 174.048557 
L 560.909268 173.935085 
L 560.918965 173.92698 
L 561.619083 173.811483 
L 561.803176 173.722327 
L 562.41687 173.60683 
L 562.640038 173.499437 
L 563.063688 173.385966 
L 563.067432 173.381914 
L 563.817296 173.266416 
L 564.026492 173.167129 
L 564.803043 173.051632 
L 564.990647 172.970581 
L 565.390905 172.85711 
L 565.395453 172.851031 
L 565.827942 172.73756 
L 565.831578 172.733508 
L 566.47673 172.615984 
L 566.692473 172.510618 
L 567.353774 172.391068 
L 567.551145 172.307991 
L 568.268018 172.190467 
L 569.885896 171.785213 
L 569.922109 171.769003 
L 570.704702 171.653506 
L 570.777545 171.627164 
L 571.245817 171.513693 
L 571.260997 171.503562 
L 572.042094 171.388064 
L 572.238967 171.300935 
L 572.957948 171.185438 
L 573.152955 171.094255 
L 573.886177 170.978758 
L 574.069145 170.90176 
L 574.701448 170.786262 
L 574.929008 170.66266 
L 575.332518 170.549189 
L 575.394445 170.516769 
L 575.961138 170.401271 
L 576.098908 170.332378 
L 576.819123 170.137856 
L 576.970279 170.079094 
L 577.382265 169.965623 
L 577.871548 169.852152 
L 578.604245 169.736655 
L 578.797498 169.635341 
L 579.514451 169.519844 
L 580.219283 169.323296 
L 580.909977 169.207798 
L 581.286963 169.039618 
L 581.983352 168.830912 
L 585.847937 167.392261 
L 586.203897 167.272711 
L 586.702045 167.098452 
L 587.121698 166.962691 
L 587.347392 166.910008 
L 588.197685 166.547306 
L 588.558764 166.411546 
L 590.137894 165.894847 
L 591.211469 165.78348 
L 591.598339 165.625431 
L 591.951836 165.503855 
L 592.708572 165.216125 
L 592.882482 165.163519 
L 593.302342 165.037813 
L 593.539163 164.95271 
L 599.209075 163.019648 
L 599.45453 162.938598 
L 604.198099 161.433079 
L 604.985329 161.317582 
L 605.124923 161.252741 
L 605.634156 161.108876 
L 606.393986 160.993379 
L 606.512564 160.936643 
L 607.492707 160.650939 
L 608.035775 160.466549 
L 608.376011 160.34092 
L 609.795799 159.885009 
L 610.151671 159.767486 
L 614.57718 158.559829 
L 615.464405 158.444331 
L 616.260743 158.231573 
L 616.395653 158.184969 
L 616.891029 158.067445 
L 617.575733 157.951948 
L 617.722062 157.899265 
L 618.481151 157.783768 
L 620.855889 157.275174 
L 620.904941 157.24478 
L 621.690223 157.129282 
L 621.835526 157.066468 
L 622.431232 156.950971 
L 622.603707 156.892209 
L 623.335938 156.776712 
L 627.182644 155.937836 
L 627.288223 155.895284 
L 627.968346 155.777761 
L 628.113526 155.698736 
L 628.757948 155.583239 
L 628.940722 155.516372 
L 629.399703 155.402901 
L 629.878476 155.279298 
L 630.573858 155.163801 
L 645.673825 151.573251 
L 646.123803 151.45978 
L 646.132578 151.453701 
L 646.584064 151.34023 
L 647.903515 150.979554 
L 648.320743 150.864057 
L 648.45707 150.84995 
L 648.99517 150.681692 
L 649.386776 150.521617 
L 655.886396 148.242064 
L 656.530729 148.12454 
L 657.105934 147.974596 
L 657.600119 147.861125 
L 657.606167 147.855046 
L 658.456096 147.739549 
L 658.632244 147.654445 
L 659.078374 147.540974 
L 659.128872 147.522738 
L 659.80283 147.407241 
L 659.952888 147.346452 
L 660.615666 147.109379 
L 660.736579 147.058722 
L 663.771544 146.126638 
L 663.945194 146.057745 
L 665.840795 145.31613 
L 665.974556 145.289789 
L 666.699488 145.054741 
L 666.845296 145.004085 
L 667.361242 144.823747 
L 667.542475 144.748775 
L 668.376759 144.48536 
L 668.536407 144.416466 
L 669.505075 144.153051 
L 669.901202 144.035528 
L 670.32773 143.905847 
L 670.7738 143.790349 
L 671.108909 143.69114 
L 671.568367 143.557328 
L 672.078459 143.36078 
L 672.725373 143.196652 
L 672.852298 143.119654 
L 674.27487 142.615113 
L 674.619651 142.495563 
L 676.885825 141.808657 
L 677.234918 141.69316 
L 677.351481 141.662766 
L 679.648753 140.82389 
L 679.648753 140.82389 
" clip-path="url(#p70d68008a4)" style="fill: none; stroke: #2ca02c; stroke-width: 1.5; stroke-linecap: square"/>
   </g>
   <g id="line2d_36">
    <path d="M 91.704545 304.805455 
L 92.287054 304.69049 
L 93.595698 304.571628 
L 93.708903 304.544348 
L 94.980558 304.423537 
L 95.09365 304.398206 
L 96.184735 304.277395 
L 96.60473 304.218939 
L 100.167413 303.860404 
L 100.18933 303.854558 
L 101.54287 303.735696 
L 102.927929 303.554481 
L 104.011474 303.435619 
L 104.147853 303.394699 
L 105.966453 303.112158 
L 106.111939 303.094621 
L 107.020127 302.942633 
L 108.473828 302.747778 
L 111.340276 302.375603 
L 114.596077 301.83975 
L 116.094123 301.566952 
L 117.300223 301.385736 
L 118.401165 301.198674 
L 118.560656 301.173343 
L 119.976062 300.933671 
L 120.939382 300.777786 
L 121.109681 300.74466 
L 127.609587 299.957443 
L 128.822553 299.838581 
L 130.167691 299.682697 
L 131.429927 299.563835 
L 137.772974 298.540842 
L 138.947958 298.42198 
L 139.403784 298.349883 
L 140.371987 298.227124 
L 140.533891 298.201793 
L 141.417568 298.063445 
L 141.694034 298.03032 
L 143.009109 297.845207 
L 143.170699 297.829618 
L 144.133442 297.683476 
L 144.279956 297.662042 
L 145.362893 297.504209 
L 145.659942 297.447701 
L 146.597941 297.299611 
L 146.800262 297.280125 
L 147.764347 297.130086 
L 147.892729 297.112549 
L 148.93429 296.987841 
L 150.779352 296.703352 
L 151.333486 296.627358 
L 152.394158 296.508496 
L 159.866621 295.4894 
L 159.903305 295.481606 
L 161.22039 295.360796 
L 172.610418 293.971474 
L 172.828344 293.940297 
L 173.925505 293.819487 
L 174.10172 293.772721 
L 182.001878 292.70686 
L 183.247033 292.58605 
L 184.051931 292.478879 
L 186.199767 292.225566 
L 188.765869 291.800781 
L 189.835374 291.640999 
L 190.001261 291.613719 
L 193.370313 291.138271 
L 194.323268 291.017461 
L 194.779739 290.972644 
L 195.704343 290.875216 
L 196.952113 290.754405 
L 197.145047 290.72128 
L 198.336496 290.600469 
L 198.493391 290.575138 
L 199.645621 290.456276 
L 199.856534 290.427048 
L 201.005265 290.306237 
L 201.171787 290.284803 
L 202.097054 290.16789 
L 202.173651 290.156198 
L 203.436603 290.033439 
L 206.696689 289.645676 
L 207.931864 289.526814 
L 210.349864 289.265707 
L 211.435298 289.148794 
L 211.677873 289.096183 
L 213.079003 288.973424 
L 214.46866 288.825333 
L 215.838056 288.702574 
L 227.324628 286.841702 
L 227.459023 286.820268 
L 228.105798 286.685817 
L 228.236688 286.65464 
L 229.034295 286.508498 
L 229.548815 286.43835 
L 230.200999 286.3039 
L 230.771058 286.20842 
L 232.107754 285.986285 
L 233.579395 285.760252 
L 234.451487 285.618008 
L 234.672147 285.582933 
L 237.879615 285.041234 
L 238.25556 284.980829 
L 241.153544 284.522918 
L 241.332659 284.468359 
L 242.754716 284.292988 
L 243.096229 284.25012 
L 245.176809 284.018242 
L 245.555781 283.955888 
L 253.907767 282.808187 
L 254.076826 282.753628 
L 260.503045 281.81832 
L 260.839406 281.750121 
L 261.635468 281.611773 
L 261.773797 281.58839 
L 263.516634 281.290261 
L 264.21352 281.204524 
L 265.683187 280.978492 
L 265.981208 280.957058 
L 268.013065 280.586832 
L 268.237492 280.542015 
L 269.042311 280.415359 
L 269.176147 280.38613 
L 275.521664 279.404057 
L 275.675313 279.367035 
L 276.549479 279.222841 
L 276.827959 279.19751 
L 277.720997 279.068905 
L 277.888569 279.018243 
L 280.287529 278.646068 
L 280.423838 278.609046 
L 281.136201 278.482389 
L 281.288385 278.44147 
L 282.526321 278.240768 
L 282.714981 278.199849 
L 283.458607 278.102421 
L 286.302823 277.704915 
L 287.141838 277.588002 
L 288.461762 277.344432 
L 288.694532 277.303512 
L 290.230259 277.098914 
L 291.31213 276.900161 
L 292.800943 276.716996 
L 293.031346 276.678025 
L 294.080867 276.555266 
L 294.767343 276.42861 
L 295.942433 276.309748 
L 296.180491 276.272725 
L 297.37095 276.149966 
L 297.555139 276.110995 
L 298.872167 275.988236 
L 299.72766 275.906396 
L 301.17104 275.781689 
L 301.405597 275.736872 
L 302.512213 275.61801 
L 302.674921 275.580987 
L 304.04034 275.460177 
L 304.061999 275.454331 
L 304.982863 275.33352 
L 305.418477 275.277012 
L 310.945686 274.487846 
L 312.047228 274.353396 
L 312.247343 274.316373 
L 317.502196 273.642172 
L 319.416903 273.412243 
L 320.576774 273.291432 
L 321.118145 273.207644 
L 322.458069 273.053708 
L 322.944964 272.993303 
L 325.01817 272.747784 
L 325.913521 272.582157 
L 327.236187 272.367816 
L 328.065963 272.217777 
L 330.185749 271.857294 
L 330.4581 271.818322 
L 332.643959 271.48317 
L 333.742576 271.364308 
L 334.191656 271.303903 
L 342.202901 269.99837 
L 342.385303 269.961347 
L 355.600881 267.802345 
L 356.497947 267.683483 
L 356.860808 267.611386 
L 359.150421 267.373662 
L 359.365938 267.334691 
L 360.378408 267.215829 
L 361.394477 267.061893 
L 361.662905 267.013179 
L 362.874513 266.847552 
L 363.789482 266.746227 
L 369.375763 266.112946 
L 369.940039 266.064232 
L 371.565127 265.941473 
L 378.03222 265.191278 
L 379.250072 265.070467 
L 379.457187 265.021753 
L 380.681119 264.902891 
L 383.310457 264.536562 
L 383.46446 264.501488 
L 384.964705 264.292993 
L 385.244578 264.240382 
L 387.135805 263.977326 
L 387.299791 263.940304 
L 388.303735 263.761037 
L 389.330445 263.612946 
L 389.486878 263.591512 
L 392.710734 263.24272 
L 392.759166 263.223235 
L 394.217094 263.096578 
L 394.471667 263.047864 
L 395.585547 262.925105 
L 400.536185 262.272339 
L 400.721433 262.245059 
L 401.485034 262.120351 
L 407.52851 261.319494 
L 408.787045 261.198683 
L 410.095323 261.048644 
L 415.049308 260.458231 
L 415.294712 260.417312 
L 416.249373 260.296501 
L 416.652448 260.226353 
L 418.659442 259.832744 
L 418.826735 259.789876 
L 420.000651 259.556049 
L 420.12602 259.542409 
L 420.889737 259.394319 
L 421.586166 259.255971 
L 422.090652 259.129315 
L 422.269576 259.074755 
L 422.558393 259.024093 
L 423.099899 258.901334 
L 423.307645 258.856517 
L 423.862253 258.77078 
L 425.455413 258.533056 
L 425.534576 258.519417 
L 426.645663 258.398606 
L 426.805494 258.357686 
L 428.650938 258.104374 
L 442.242052 255.881069 
L 443.657443 255.754413 
L 443.865526 255.709596 
L 445.11716 255.586837 
L 463.714529 252.847165 
L 464.801987 252.726355 
L 466.083642 252.498373 
L 466.314723 252.437968 
L 467.423064 252.237267 
L 467.610694 252.200244 
L 469.066612 251.974211 
L 469.770452 251.849504 
L 471.777751 251.481226 
L 471.919852 251.457844 
L 472.630933 251.333136 
L 474.616006 251.001881 
L 474.76119 250.97655 
L 475.969793 250.756363 
L 476.091773 250.734929 
L 477.687825 250.477719 
L 478.004709 250.425108 
L 478.722295 250.302349 
L 478.854923 250.278966 
L 480.039604 250.113339 
L 480.591293 250.015911 
L 481.378051 249.856129 
L 481.869641 249.758701 
L 483.16686 249.596971 
L 483.423556 249.54436 
L 485.258465 249.333916 
L 485.478714 249.30079 
L 489.992302 248.620744 
L 492.714317 248.336254 
L 494.505816 248.147244 
L 495.757394 247.971874 
L 497.19498 247.753636 
L 501.431324 247.093075 
L 501.581219 247.061898 
L 503.709632 246.763768 
L 503.872578 246.730643 
L 509.236547 245.86938 
L 510.378477 245.744673 
L 510.726363 245.705702 
L 514.912378 245.121134 
L 515.104276 245.08606 
L 515.833735 244.961352 
L 516.158441 244.918484 
L 518.984657 244.429396 
L 529.730827 242.677643 
L 529.89261 242.642569 
L 531.948979 242.373668 
L 531.95421 242.369771 
L 533.094696 242.24896 
L 533.590232 242.176864 
L 537.902051 241.66829 
L 538.054762 241.644907 
L 539.785822 241.389646 
L 539.96953 241.34483 
L 547.45841 240.41147 
L 548.383952 240.294557 
L 550.728601 240.012016 
L 551.614887 239.895103 
L 552.058094 239.826903 
L 553.225688 239.649584 
L 553.451639 239.620356 
L 554.207898 239.501494 
L 554.374445 239.48006 
L 555.129775 239.357301 
L 556.221776 239.160496 
L 556.927456 239.03384 
L 558.574441 238.722071 
L 558.769424 238.688945 
L 560.62652 238.371331 
L 561.414483 238.252469 
L 561.606232 238.211549 
L 562.230957 238.090738 
L 566.051311 237.443817 
L 566.802375 237.319109 
L 567.707093 237.155431 
L 568.705867 237.011237 
L 569.010995 236.962523 
L 570.132865 236.773513 
L 570.321578 236.736491 
L 571.213158 236.584503 
L 572.509293 236.383802 
L 573.335819 236.257146 
L 573.644941 236.175306 
L 574.869784 236.00773 
L 575.788341 235.888868 
L 576.882708 235.771955 
L 577.031187 235.729086 
L 578.249673 235.579047 
L 578.386877 235.553716 
L 579.233523 235.382243 
L 579.370212 235.366655 
L 580.633449 235.123085 
L 580.797724 235.088011 
L 581.834796 234.904847 
L 582.931632 234.702197 
L 583.964487 234.542415 
L 591.154229 233.673358 
L 592.363934 233.552548 
L 594.516651 233.244675 
L 597.043636 233.003054 
L 598.324525 232.882244 
L 601.078392 232.566577 
L 602.476057 232.445767 
L 618.09366 230.697911 
L 618.291736 230.660888 
L 619.898742 230.432907 
L 620.176323 230.38809 
L 621.129957 230.269228 
L 621.376632 230.206874 
L 634.45097 228.069306 
L 635.092281 227.948496 
L 637.79904 227.541247 
L 638.247145 227.492533 
L 647.82601 225.810928 
L 647.966591 225.789494 
L 649.313701 225.559564 
L 649.531097 225.505005 
L 651.093532 225.341326 
L 651.238903 225.310149 
L 652.283972 225.189338 
L 652.928363 225.111396 
L 653.978409 224.990585 
L 654.102278 224.961357 
L 655.288151 224.842495 
L 655.484761 224.803524 
L 656.316082 224.68661 
L 657.868534 224.452783 
L 659.029819 224.326127 
L 659.654633 224.213111 
L 660.847587 224.088403 
L 660.938973 224.074763 
L 662.14912 223.953953 
L 662.202652 223.946158 
L 663.424138 223.825348 
L 672.603395 222.788715 
L 674.036202 222.658162 
L 674.776629 222.572425 
L 675.882441 222.451615 
L 676.431733 222.367827 
L 677.743795 222.247016 
L 677.90324 222.219736 
L 678.975966 222.100874 
L 679.509454 222.032675 
L 679.509454 222.032675 
" clip-path="url(#p70d68008a4)" style="fill: none; stroke: #d62728; stroke-width: 1.5; stroke-linecap: square"/>
   </g>
   <g id="patch_3">
    <path d="M 62.3 318.04 
L 62.3 26.88 
" style="fill: none; stroke: #000000; stroke-width: 0.8; stroke-linejoin: miter; stroke-linecap: square"/>
   </g>
   <g id="patch_4">
    <path d="M 709.2 318.04 
L 709.2 26.88 
" style="fill: none; stroke: #000000; stroke-width: 0.8; stroke-linejoin: miter; stroke-linecap: square"/>
   </g>
   <g id="patch_5">
    <path d="M 62.3 318.04 
L 709.2 318.04 
" style="fill: none; stroke: #000000; stroke-width: 0.8; stroke-linejoin: miter; stroke-linecap: square"/>
   </g>
   <g id="patch_6">
    <path d="M 62.3 26.88 
L 709.2 26.88 
" style="fill: none; stroke: #000000; stroke-width: 0.8; stroke-linejoin: miter; stroke-linecap: square"/>
   </g>
   <g id="text_19">
    <!-- Received data over time -->
    <g transform="translate(312.277188 20.88) scale(0.12 -0.12)">
     <defs>
      <path id="DejaVuSans-72" d="M 2631 2963 
Q 2534 3019 2420 3045 
Q 2306 3072 2169 3072 
Q 1681 3072 1420 2755 
Q 1159 2438 1159 1844 
L 1159 0 
L 581 0 
L 581 3500 
L 1159 3500 
L 1159 2956 
Q 1341 3275 1631 3429 
Q 1922 3584 2338 3584 
Q 2397 3584 2469 3576 
Q 2541 3569 2628 3553 
L 2631 2963 
z
" transform="scale(0.015625)"/>
     </defs>
     <use xlink:href="#DejaVuSans-52"/>
     <use xlink:href="#DejaVuSans-65" x="64.982422"/>
     <use xlink:href="#DejaVuSans-63" x="126.505859"/>
     <use xlink:href="#DejaVuSans-65" x="181.486328"/>
     <use xlink:href="#DejaVuSans-69" x="243.009766"/>
     <use xlink:href="#DejaVuSans-76" x="270.792969"/>
     <use xlink:href="#DejaVuSans-65" x="329.972656"/>
     <use xlink:href="#DejaVuSans-64" x="391.496094"/>
     <use xlink:href="#DejaVuSans-20" x="454.972656"/>
     <use xlink:href="#DejaVuSans-64" x="486.759766"/>
     <use xlink:href="#DejaVuSans-61" x="550.236328"/>
     <use xlink:href="#DejaVuSans-74" x="611.515625"/>
     <use xlink:href="#DejaVuSans-61" x="650.724609"/>
     <use xlink:href="#DejaVuSans-20" x="712.003906"/>
     <use xlink:href="#DejaVuSans-6f" x="743.791016"/>
     <use xlink:href="#DejaVuSans-76" x="804.972656"/>
     <use xlink:href="#DejaVuSans-65" x="864.152344"/>
     <use xlink:href="#DejaVuSans-72" x="925.675781"/>
     <use xlink:href="#DejaVuSans-20" x="966.789062"/>
     <use xlink:href="#DejaVuSans-74" x="998.576172"/>
     <use xlink:href="#DejaVuSans-69" x="1037.785156"/>
     <use xlink:href="#DejaVuSans-6d" x="1065.568359"/>
     <use xlink:href="#DejaVuSans-65" x="1162.980469"/>
    </g>
   </g>
   <g id="legend_1">
    <g id="patch_7">
     <path d="M 69.3 94.705 
L 209.971875 94.705 
Q 211.971875 94.705 211.971875 92.705 
L 211.971875 33.88 
Q 211.971875 31.88 209.971875 31.88 
L 69.3 31.88 
Q 67.3 31.88 67.3 33.88 
L 67.3 92.705 
Q 67.3 94.705 69.3 94.705 
z
" style="fill: #ffffff; opacity: 0.8; stroke: #cccccc; stroke-linejoin: miter"/>
    </g>
    <g id="line2d_37">
     <path d="M 71.3 39.978437 
L 81.3 39.978437 
L 91.3 39.978437 
" style="fill: none; stroke: #1f77b4; stroke-width: 1.5; stroke-linecap: square"/>
    </g>
    <g id="text_20">
     <!-- single_rec_golden.log -->
     <g transform="translate(99.3 43.478437) scale(0.1 -0.1)">
      <defs>
       <path id="DejaVuSans-67" d="M 2906 1791 
Q 2906 2416 2648 2759 
Q 2391 3103 1925 3103 
Q 1463 3103 1205 2759 
Q 947 2416 947 1791 
Q 947 1169 1205 825 
Q 1463 481 1925 481 
Q 2391 481 2648 825 
Q 2906 1169 2906 1791 
z
M 3481 434 
Q 3481 -459 3084 -895 
Q 2688 -1331 1869 -1331 
Q 1566 -1331 1297 -1286 
Q 1028 -1241 775 -1147 
L 775 -588 
Q 1028 -725 1275 -790 
Q 1522 -856 1778 -856 
Q 2344 -856 2625 -561 
Q 2906 -266 2906 331 
L 2906 616 
Q 2728 306 2450 153 
Q 2172 0 1784 0 
Q 1141 0 747 490 
Q 353 981 353 1791 
Q 353 2603 747 3093 
Q 1141 3584 1784 3584 
Q 2172 3584 2450 3431 
Q 2728 3278 2906 2969 
L 2906 3500 
L 3481 3500 
L 3481 434 
z
" transform="scale(0.015625)"/>
       <path id="DejaVuSans-6c" d="M 603 4863 
L 1178 4863 
L 1178 0 
L 603 0 
L 603 4863 
z
" transform="scale(0.015625)"/>
       <path id="DejaVuSans-5f" d="M 3263 -1063 
L 3263 -1509 
L -63 -1509 
L -63 -1063 
L 3263 -1063 
z
" transform="scale(0.015625)"/>
       <path id="DejaVuSans-2e" d="M 684 794 
L 1344 794 
L 1344 0 
L 684 0 
L 684 794 
z
" transform="scale(0.015625)"/>
      </defs>
      <use xlink:href="#DejaVuSans-73"/>
      <use xlink:href="#DejaVuSans-69" x="52.099609"/>
      <use xlink:href="#DejaVuSans-6e" x="79.882812"/>
      <use xlink:href="#DejaVuSans-67" x="143.261719"/>
      <use xlink:href="#DejaVuSans-6c" x="206.738281"/>
      <use xlink:href="#DejaVuSans-65" x="234.521484"/>
      <use xlink:href="#DejaVuSans-5f" x="296.044922"/>
      <use xlink:href="#DejaVuSans-72" x="346.044922"/>
      <use xlink:href="#DejaVuSans-65" x="384.908203"/>
      <use xlink:href="#DejaVuSans-63" x="446.431641"/>
      <use xlink:href="#DejaVuSans-5f" x="501.412109"/>
      <use xlink:href="#DejaVuSans-67" x="551.412109"/>
      <use xlink:href="#DejaVuSans-6f" x="614.888672"/>
      <use xlink:href="#DejaVuSans-6c" x="676.070312"/>
      <use xlink:href="#DejaVuSans-64" x="703.853516"/>
      <use xlink:href="#DejaVuSans-65" x="767.330078"/>
      <use xlink:href="#DejaVuSans-6e" x="828.853516"/>
      <use xlink:href="#DejaVuSans-2e" x="892.232422"/>
      <use xlink:href="#DejaVuSans-6c" x="924.019531"/>
      <use xlink:href="#DejaVuSans-6f" x="951.802734"/>
      <use xlink:href="#DejaVuSans-67" x="1012.984375"/>
     </g>
    </g>
    <g id="line2d_38">
     <path d="M 71.3 54.934687 
L 81.3 54.934687 
L 91.3 54.934687 
" style="fill: none; stroke: #ff7f0e; stroke-width: 1.5; stroke-linecap: square"/>
    </g>
    <g id="text_21">
     <!-- single_rec_silver.log -->
     <g transform="translate(99.3 58.434687) scale(0.1 -0.1)">
      <use xlink:href="#DejaVuSans-73"/>
      <use xlink:href="#DejaVuSans-69" x="52.099609"/>
      <use xlink:href="#DejaVuSans-6e" x="79.882812"/>
      <use xlink:href="#DejaVuSans-67" x="143.261719"/>
      <use xlink:href="#DejaVuSans-6c" x="206.738281"/>
      <use xlink:href="#DejaVuSans-65" x="234.521484"/>
      <use xlink:href="#DejaVuSans-5f" x="296.044922"/>
      <use xlink:href="#DejaVuSans-72" x="346.044922"/>
      <use xlink:href="#DejaVuSans-65" x="384.908203"/>
      <use xlink:href="#DejaVuSans-63" x="446.431641"/>
      <use xlink:href="#DejaVuSans-5f" x="501.412109"/>
      <use xlink:href="#DejaVuSans-73" x="551.412109"/>
      <use xlink:href="#DejaVuSans-69" x="603.511719"/>
      <use xlink:href="#DejaVuSans-6c" x="631.294922"/>
      <use xlink:href="#DejaVuSans-76" x="659.078125"/>
      <use xlink:href="#DejaVuSans-65" x="718.257812"/>
      <use xlink:href="#DejaVuSans-72" x="779.78125"/>
      <use xlink:href="#DejaVuSans-2e" x="811.769531"/>
      <use xlink:href="#DejaVuSans-6c" x="843.556641"/>
      <use xlink:href="#DejaVuSans-6f" x="871.339844"/>
      <use xlink:href="#DejaVuSans-67" x="932.521484"/>
     </g>
    </g>
    <g id="line2d_39">
     <path d="M 71.3 69.890938 
L 81.3 69.890938 
L 91.3 69.890938 
" style="fill: none; stroke: #2ca02c; stroke-width: 1.5; stroke-linecap: square"/>
    </g>
    <g id="text_22">
     <!-- mixed_rec_golden.log -->
     <g transform="translate(99.3 73.390938) scale(0.1 -0.1)">
      <defs>
       <path id="DejaVuSans-78" d="M 3513 3500 
L 2247 1797 
L 3578 0 
L 2900 0 
L 1881 1375 
L 863 0 
L 184 0 
L 1544 1831 
L 300 3500 
L 978 3500 
L 1906 2253 
L 2834 3500 
L 3513 3500 
z
" transform="scale(0.015625)"/>
      </defs>
      <use xlink:href="#DejaVuSans-6d"/>
      <use xlink:href="#DejaVuSans-69" x="97.412109"/>
      <use xlink:href="#DejaVuSans-78" x="125.195312"/>
      <use xlink:href="#DejaVuSans-65" x="181.25"/>
      <use xlink:href="#DejaVuSans-64" x="242.773438"/>
      <use xlink:href="#DejaVuSans-5f" x="306.25"/>
      <use xlink:href="#DejaVuSans-72" x="356.25"/>
      <use xlink:href="#DejaVuSans-65" x="395.113281"/>
      <use xlink:href="#DejaVuSans-63" x="456.636719"/>
      <use xlink:href="#DejaVuSans-5f" x="511.617188"/>
      <use xlink:href="#DejaVuSans-67" x="561.617188"/>
      <use xlink:href="#DejaVuSans-6f" x="625.09375"/>
      <use xlink:href="#DejaVuSans-6c" x="686.275391"/>
      <use xlink:href="#DejaVuSans-64" x="714.058594"/>
      <use xlink:href="#DejaVuSans-65" x="777.535156"/>
      <use xlink:href="#DejaVuSans-6e" x="839.058594"/>
      <use xlink:href="#DejaVuSans-2e" x="902.4375"/>
      <use xlink:href="#DejaVuSans-6c" x="934.224609"/>
      <use xlink:href="#DejaVuSans-6f" x="962.007812"/>
      <use xlink:href="#DejaVuSans-67" x="1023.189453"/>
     </g>
    </g>
    <g id="line2d_40">
     <path d="M 71.3 84.847188 
L 81.3 84.847188 
L 91.3 84.847188 
" style="fill: none; stroke: #d62728; stroke-width: 1.5; stroke-linecap: square"/>
    </g>
    <g id="text_23">
     <!-- mixed_rec_silver.log -->
     <g transform="translate(99.3 88.347188) scale(0.1 -0.1)">
      <use xlink:href="#DejaVuSans-6d"/>
      <use xlink:href="#DejaVuSans-69" x="97.412109"/>
      <use xlink:href="#DejaVuSans-78" x="125.195312"/>
      <use xlink:href="#DejaVuSans-65" x="181.25"/>
      <use xlink:href="#DejaVuSans-64" x="242.773438"/>
      <use xlink:href="#DejaVuSans-5f" x="306.25"/>
      <use xlink:href="#DejaVuSans-72" x="356.25"/>
      <use xlink:href="#DejaVuSans-65" x="395.113281"/>
      <use xlink:href="#DejaVuSans-63" x="456.636719"/>
      <use xlink:href="#DejaVuSans-5f" x="511.617188"/>
      <use xlink:href="#DejaVuSans-73" x="561.617188"/>
      <use xlink:href="#DejaVuSans-69" x="613.716797"/>
      <use xlink:href="#DejaVuSans-6c" x="641.5"/>
      <use xlink:href="#DejaVuSans-76" x="669.283203"/>
      <use xlink:href="#DejaVuSans-65" x="728.462891"/>
      <use xlink:href="#DejaVuSans-72" x="789.986328"/>
      <use xlink:href="#DejaVuSans-2e" x="821.974609"/>
      <use xlink:href="#DejaVuSans-6c" x="853.761719"/>
      <use xlink:href="#DejaVuSans-6f" x="881.544922"/>
      <use xlink:href="#DejaVuSans-67" x="942.726562"/>
     </g>
    </g>
   </g>
  </g>
 </g>
 <defs>
  <clipPath id="p70d68008a4">
   <rect x="62.3" y="26.88" width="646.9" height="291.16"/>
  </clipPath>
 </defs>
</svg>
